M48
;GenerationSoftware,Autodesk,EAGLE,9.6.2*%
;CreationDate,2021-01-29T03:58:38Z*%
FMAT,2
ICI,OFF
METRIC,TZ,000.000
T8C0.300
T7C0.350
T6C0.800
T5C1.000
T4C1.016
T3C1.400
T2C3.000
T1C3.500
%
G90
M71
T1
X16200Y50800
X15000Y2540
X67000Y7620
X67000Y35560
T2
X3500Y50600
X3500Y26550
T3
X65950Y12540
X65950Y19940
T4
X56349Y40312
X56349Y42852
X56349Y45392
X48275Y40312
X48275Y42852
X48275Y45392
X40202Y40312
X40202Y42852
X40202Y45392
X5140Y43640
X5140Y41100
X51030Y9460
X53570Y9460
X5140Y38560
X5140Y36020
X5140Y33480
T5
X28940Y2540
X31480Y2540
X19796Y50800
X22336Y50800
X34020Y2540
X36560Y2540
X39100Y2540
X41640Y2540
X44180Y2540
X46720Y2540
X64500Y2540
X61960Y2540
X59420Y2540
X56880Y2540
X54340Y2540
X24876Y50800
X27416Y50800
X29956Y50800
X32496Y50800
X35036Y50800
X37576Y50800
X40116Y50800
X42656Y50800
X46720Y50800
X49260Y50800
X51800Y50800
X64500Y50800
X61960Y50800
X59420Y50800
X56880Y50800
X51800Y2540
X54340Y50800
T6
X42930Y21270
X40390Y21270
X32770Y21270
X30230Y21270
X54360Y18730
X54360Y21270
X54360Y23810
X54360Y26350
X54360Y28890
X54360Y31430
X23880Y17460
X26420Y17460
X28960Y17460
X31500Y17460
X34040Y17460
X36580Y17460
X39120Y17460
X41660Y17460
X44200Y17460
X46740Y17460
X49280Y17460
X51820Y17460
X23880Y32700
X26420Y32700
X28960Y32700
X31500Y32700
X34040Y32700
X36580Y32700
X39120Y32700
X41660Y32700
X44200Y32700
X46740Y32700
X49280Y32700
X51820Y32700
T7
X10200Y44550
X21000Y31950
X21000Y31950
X18900Y31800
X18900Y31800
X67760Y50820
X66977Y30775
X62809Y7600
X9807Y50752
X2154Y2182
T8
X46800Y24750
X36900Y22500
X35100Y10350
M30