G04 EAGLE Gerber RS-274X export*
G75*
%MOMM*%
%FSLAX34Y34*%
%LPD*%
%INTop Copper*%
%IPPOS*%
%AMOC8*
5,1,8,0,0,1.08239X$1,22.5*%
G01*
%ADD10C,1.524000*%
%ADD11C,1.200000*%
%ADD12P,1.814519X8X22.500000*%
%ADD13R,2.700000X0.700000*%
%ADD14C,2.100000*%
%ADD15R,1.400000X1.000000*%
%ADD16R,1.500000X1.300000*%
%ADD17R,1.300000X1.500000*%
%ADD18C,0.650000*%
%ADD19C,1.016000*%
%ADD20C,1.270000*%
%ADD21C,0.812800*%
%ADD22C,0.100000*%
%ADD23C,0.800000*%
%ADD24C,0.600000*%

G36*
X126552Y11447D02*
X126552Y11447D01*
X126684Y11458D01*
X126710Y11467D01*
X126737Y11471D01*
X126859Y11519D01*
X126985Y11563D01*
X127007Y11578D01*
X127032Y11588D01*
X127139Y11665D01*
X127250Y11739D01*
X127268Y11759D01*
X127290Y11774D01*
X127374Y11877D01*
X127463Y11975D01*
X127475Y11999D01*
X127492Y12019D01*
X127549Y12139D01*
X127610Y12256D01*
X127616Y12283D01*
X127628Y12307D01*
X127653Y12437D01*
X127683Y12566D01*
X127683Y12593D01*
X127688Y12620D01*
X127680Y12752D01*
X127677Y12884D01*
X127670Y12910D01*
X127668Y12937D01*
X127627Y13063D01*
X127592Y13190D01*
X127575Y13225D01*
X127570Y13239D01*
X127558Y13258D01*
X127520Y13335D01*
X126237Y15557D01*
X124499Y22043D01*
X124499Y28757D01*
X126237Y35243D01*
X129594Y41058D01*
X134342Y45806D01*
X140157Y49163D01*
X146643Y50901D01*
X153357Y50901D01*
X159843Y49163D01*
X165658Y45806D01*
X170406Y41058D01*
X173763Y35243D01*
X175501Y28757D01*
X175501Y22043D01*
X173763Y15557D01*
X172480Y13335D01*
X172428Y13212D01*
X172372Y13093D01*
X172367Y13066D01*
X172356Y13041D01*
X172337Y12910D01*
X172312Y12781D01*
X172314Y12754D01*
X172310Y12727D01*
X172324Y12595D01*
X172332Y12463D01*
X172340Y12437D01*
X172343Y12411D01*
X172389Y12286D01*
X172430Y12161D01*
X172444Y12138D01*
X172454Y12112D01*
X172529Y12004D01*
X172600Y11892D01*
X172620Y11873D01*
X172635Y11851D01*
X172735Y11765D01*
X172832Y11674D01*
X172855Y11661D01*
X172876Y11643D01*
X172995Y11584D01*
X173110Y11520D01*
X173136Y11514D01*
X173161Y11502D01*
X173290Y11474D01*
X173418Y11441D01*
X173456Y11439D01*
X173472Y11435D01*
X173494Y11436D01*
X173579Y11431D01*
X277136Y11431D01*
X277274Y11448D01*
X277413Y11461D01*
X277432Y11468D01*
X277452Y11471D01*
X277581Y11522D01*
X277712Y11569D01*
X277729Y11580D01*
X277748Y11588D01*
X277860Y11669D01*
X277975Y11747D01*
X277989Y11763D01*
X278005Y11774D01*
X278094Y11882D01*
X278186Y11986D01*
X278195Y12004D01*
X278208Y12019D01*
X278267Y12145D01*
X278330Y12269D01*
X278335Y12289D01*
X278343Y12307D01*
X278369Y12443D01*
X278400Y12579D01*
X278399Y12600D01*
X278403Y12620D01*
X278394Y12758D01*
X278390Y12897D01*
X278385Y12917D01*
X278383Y12937D01*
X278340Y13069D01*
X278302Y13203D01*
X278292Y13220D01*
X278285Y13239D01*
X278211Y13357D01*
X278140Y13477D01*
X278122Y13498D01*
X278115Y13508D01*
X278100Y13522D01*
X278034Y13598D01*
X273017Y18614D01*
X273017Y32186D01*
X282614Y41783D01*
X296186Y41783D01*
X301203Y36766D01*
X301297Y36693D01*
X301386Y36614D01*
X301422Y36596D01*
X301454Y36571D01*
X301563Y36524D01*
X301669Y36470D01*
X301708Y36461D01*
X301746Y36445D01*
X301863Y36426D01*
X301979Y36400D01*
X302020Y36401D01*
X302060Y36395D01*
X302178Y36406D01*
X302297Y36410D01*
X302336Y36421D01*
X302376Y36425D01*
X302489Y36465D01*
X302603Y36498D01*
X302638Y36519D01*
X302676Y36532D01*
X302774Y36599D01*
X302877Y36660D01*
X302922Y36700D01*
X302939Y36711D01*
X302952Y36726D01*
X302998Y36766D01*
X308014Y41783D01*
X321586Y41783D01*
X326603Y36766D01*
X326697Y36693D01*
X326786Y36614D01*
X326822Y36596D01*
X326854Y36571D01*
X326963Y36524D01*
X327069Y36470D01*
X327108Y36461D01*
X327146Y36445D01*
X327263Y36426D01*
X327379Y36400D01*
X327420Y36401D01*
X327460Y36395D01*
X327578Y36406D01*
X327697Y36410D01*
X327736Y36421D01*
X327776Y36425D01*
X327889Y36465D01*
X328003Y36498D01*
X328038Y36519D01*
X328076Y36532D01*
X328174Y36599D01*
X328277Y36660D01*
X328322Y36700D01*
X328339Y36711D01*
X328352Y36726D01*
X328398Y36766D01*
X333414Y41783D01*
X346986Y41783D01*
X352003Y36766D01*
X352097Y36693D01*
X352186Y36614D01*
X352222Y36596D01*
X352254Y36571D01*
X352363Y36524D01*
X352469Y36470D01*
X352508Y36461D01*
X352546Y36445D01*
X352663Y36426D01*
X352779Y36400D01*
X352820Y36401D01*
X352860Y36395D01*
X352978Y36406D01*
X353097Y36410D01*
X353136Y36421D01*
X353176Y36425D01*
X353288Y36465D01*
X353403Y36498D01*
X353438Y36519D01*
X353476Y36532D01*
X353574Y36599D01*
X353677Y36660D01*
X353722Y36700D01*
X353739Y36711D01*
X353752Y36726D01*
X353798Y36766D01*
X355864Y38832D01*
X355924Y38910D01*
X355992Y38983D01*
X356021Y39036D01*
X356058Y39083D01*
X356098Y39174D01*
X356146Y39261D01*
X356161Y39320D01*
X356185Y39375D01*
X356200Y39473D01*
X356225Y39569D01*
X356231Y39669D01*
X356235Y39689D01*
X356233Y39702D01*
X356235Y39730D01*
X356235Y76730D01*
X356220Y76848D01*
X356213Y76967D01*
X356200Y77005D01*
X356195Y77046D01*
X356152Y77156D01*
X356115Y77269D01*
X356093Y77304D01*
X356078Y77341D01*
X356009Y77437D01*
X355945Y77538D01*
X355915Y77566D01*
X355892Y77599D01*
X355800Y77675D01*
X355713Y77756D01*
X355678Y77776D01*
X355647Y77801D01*
X355539Y77852D01*
X355435Y77910D01*
X355395Y77920D01*
X355359Y77937D01*
X355242Y77959D01*
X355127Y77989D01*
X355067Y77993D01*
X355047Y77997D01*
X355026Y77995D01*
X354966Y77999D01*
X334632Y77999D01*
X334602Y77996D01*
X334573Y77998D01*
X334445Y77976D01*
X334316Y77959D01*
X334289Y77949D01*
X334260Y77944D01*
X334141Y77890D01*
X334020Y77842D01*
X333997Y77825D01*
X333970Y77813D01*
X333868Y77732D01*
X333763Y77656D01*
X333744Y77633D01*
X333721Y77614D01*
X333643Y77511D01*
X333560Y77411D01*
X333548Y77384D01*
X333530Y77360D01*
X333459Y77216D01*
X333256Y76725D01*
X331005Y74475D01*
X329797Y73974D01*
X329772Y73960D01*
X329744Y73951D01*
X329634Y73881D01*
X329521Y73817D01*
X329500Y73796D01*
X329475Y73781D01*
X329386Y73686D01*
X329293Y73596D01*
X329277Y73570D01*
X329257Y73549D01*
X329194Y73435D01*
X329127Y73325D01*
X329118Y73296D01*
X329104Y73270D01*
X329071Y73145D01*
X329033Y73021D01*
X329032Y72991D01*
X329024Y72963D01*
X329014Y72802D01*
X329014Y71297D01*
X320243Y71297D01*
X320125Y71282D01*
X320006Y71274D01*
X319968Y71262D01*
X319928Y71257D01*
X319817Y71213D01*
X319704Y71176D01*
X319670Y71155D01*
X319632Y71140D01*
X319536Y71070D01*
X319435Y71006D01*
X319407Y70977D01*
X319375Y70953D01*
X319299Y70861D01*
X319217Y70774D01*
X319198Y70739D01*
X319172Y70708D01*
X319121Y70600D01*
X319064Y70496D01*
X319054Y70457D01*
X319036Y70420D01*
X319014Y70303D01*
X318984Y70188D01*
X318980Y70128D01*
X318977Y70108D01*
X318978Y70088D01*
X318974Y70027D01*
X318974Y68757D01*
X318972Y68757D01*
X318972Y70027D01*
X318957Y70146D01*
X318950Y70264D01*
X318938Y70303D01*
X318933Y70343D01*
X318889Y70454D01*
X318852Y70567D01*
X318830Y70601D01*
X318815Y70639D01*
X318746Y70735D01*
X318682Y70835D01*
X318652Y70863D01*
X318629Y70896D01*
X318537Y70972D01*
X318450Y71053D01*
X318415Y71073D01*
X318384Y71099D01*
X318276Y71149D01*
X318172Y71207D01*
X318133Y71217D01*
X318096Y71234D01*
X317979Y71257D01*
X317864Y71286D01*
X317804Y71290D01*
X317784Y71294D01*
X317763Y71293D01*
X317703Y71297D01*
X308932Y71297D01*
X308932Y72802D01*
X308929Y72831D01*
X308931Y72861D01*
X308909Y72988D01*
X308893Y73117D01*
X308882Y73145D01*
X308877Y73174D01*
X308823Y73293D01*
X308776Y73413D01*
X308758Y73437D01*
X308746Y73464D01*
X308665Y73566D01*
X308589Y73670D01*
X308566Y73689D01*
X308548Y73712D01*
X308444Y73790D01*
X308344Y73873D01*
X308317Y73886D01*
X308293Y73904D01*
X308149Y73974D01*
X306941Y74475D01*
X304691Y76725D01*
X303472Y79666D01*
X303472Y88860D01*
X303464Y88929D01*
X303465Y88999D01*
X303453Y89049D01*
X303450Y89092D01*
X303439Y89127D01*
X303433Y89175D01*
X303407Y89240D01*
X303391Y89308D01*
X303363Y89360D01*
X303352Y89394D01*
X303336Y89420D01*
X303316Y89471D01*
X303275Y89528D01*
X303242Y89589D01*
X303198Y89637D01*
X303182Y89663D01*
X303164Y89680D01*
X303129Y89728D01*
X303075Y89773D01*
X303028Y89825D01*
X302969Y89863D01*
X302950Y89881D01*
X302933Y89891D01*
X302884Y89931D01*
X302821Y89961D01*
X302762Y89999D01*
X302692Y90024D01*
X302672Y90035D01*
X302656Y90039D01*
X302596Y90067D01*
X302528Y90080D01*
X302462Y90103D01*
X302384Y90109D01*
X302364Y90114D01*
X302342Y90115D01*
X302284Y90127D01*
X302224Y90123D01*
X302203Y90124D01*
X302201Y90124D01*
X302197Y90124D01*
X302145Y90128D01*
X302056Y90112D01*
X301966Y90107D01*
X301904Y90087D01*
X301886Y90084D01*
X301879Y90082D01*
X301831Y90073D01*
X301749Y90036D01*
X301664Y90009D01*
X301612Y89976D01*
X301590Y89967D01*
X301580Y89961D01*
X301541Y89943D01*
X301471Y89887D01*
X301395Y89839D01*
X301357Y89798D01*
X301333Y89781D01*
X301322Y89767D01*
X301293Y89744D01*
X301239Y89672D01*
X301177Y89607D01*
X301154Y89564D01*
X301130Y89536D01*
X301120Y89515D01*
X301102Y89490D01*
X301031Y89346D01*
X300481Y88019D01*
X298230Y85768D01*
X295290Y84550D01*
X279107Y84550D01*
X278184Y84932D01*
X278088Y84958D01*
X277996Y84993D01*
X277936Y85000D01*
X277877Y85016D01*
X277778Y85018D01*
X277680Y85029D01*
X277620Y85020D01*
X277559Y85021D01*
X277463Y84998D01*
X277365Y84984D01*
X277270Y84952D01*
X277250Y84947D01*
X277239Y84941D01*
X277213Y84932D01*
X276290Y84550D01*
X260107Y84550D01*
X257166Y85768D01*
X254916Y88019D01*
X253697Y90959D01*
X253697Y109142D01*
X254916Y112083D01*
X257166Y114333D01*
X258847Y115029D01*
X258968Y115098D01*
X259091Y115163D01*
X259106Y115177D01*
X259123Y115187D01*
X259223Y115284D01*
X259326Y115377D01*
X259337Y115394D01*
X259352Y115408D01*
X259424Y115527D01*
X259501Y115643D01*
X259507Y115662D01*
X259518Y115679D01*
X259559Y115812D01*
X259604Y115944D01*
X259605Y115964D01*
X259611Y115983D01*
X259618Y116122D01*
X259629Y116261D01*
X259626Y116281D01*
X259627Y116301D01*
X259598Y116437D01*
X259575Y116574D01*
X259566Y116593D01*
X259562Y116612D01*
X259501Y116738D01*
X259444Y116864D01*
X259431Y116880D01*
X259423Y116898D01*
X259332Y117004D01*
X259245Y117113D01*
X259229Y117125D01*
X259216Y117140D01*
X259103Y117220D01*
X258991Y117304D01*
X258966Y117316D01*
X258956Y117323D01*
X258937Y117331D01*
X258847Y117375D01*
X257827Y117797D01*
X255576Y120048D01*
X254358Y122989D01*
X254358Y141171D01*
X255576Y144112D01*
X257628Y146164D01*
X257688Y146242D01*
X257756Y146314D01*
X257785Y146367D01*
X257822Y146415D01*
X257862Y146506D01*
X257910Y146592D01*
X257925Y146651D01*
X257949Y146707D01*
X257964Y146805D01*
X257989Y146900D01*
X257995Y147000D01*
X257999Y147021D01*
X257997Y147033D01*
X257999Y147061D01*
X257999Y155166D01*
X257996Y155195D01*
X257998Y155225D01*
X257976Y155353D01*
X257959Y155482D01*
X257949Y155509D01*
X257944Y155538D01*
X257890Y155657D01*
X257842Y155777D01*
X257825Y155801D01*
X257813Y155828D01*
X257732Y155930D01*
X257656Y156035D01*
X257633Y156053D01*
X257614Y156077D01*
X257511Y156155D01*
X257411Y156237D01*
X257384Y156250D01*
X257360Y156268D01*
X257216Y156339D01*
X256269Y156731D01*
X252398Y160602D01*
X252303Y160676D01*
X252214Y160754D01*
X252178Y160773D01*
X252146Y160797D01*
X252037Y160845D01*
X251931Y160899D01*
X251892Y160908D01*
X251854Y160924D01*
X251737Y160942D01*
X251621Y160968D01*
X251580Y160967D01*
X251540Y160974D01*
X251422Y160962D01*
X251303Y160959D01*
X251264Y160948D01*
X251224Y160944D01*
X251111Y160903D01*
X250997Y160870D01*
X250963Y160850D01*
X250924Y160836D01*
X250826Y160769D01*
X250723Y160709D01*
X250678Y160669D01*
X250661Y160658D01*
X250648Y160642D01*
X250603Y160602D01*
X246731Y156731D01*
X241585Y154599D01*
X236015Y154599D01*
X230869Y156731D01*
X226931Y160669D01*
X224799Y165815D01*
X224799Y183385D01*
X226931Y188531D01*
X230869Y192469D01*
X236015Y194601D01*
X240103Y194601D01*
X240202Y194613D01*
X240301Y194616D01*
X240359Y194633D01*
X240419Y194641D01*
X240511Y194677D01*
X240606Y194705D01*
X240658Y194735D01*
X240715Y194758D01*
X240795Y194816D01*
X240880Y194866D01*
X240955Y194932D01*
X240972Y194944D01*
X240980Y194954D01*
X241001Y194972D01*
X249702Y203674D01*
X254113Y205501D01*
X287030Y205501D01*
X287148Y205516D01*
X287267Y205523D01*
X287305Y205536D01*
X287346Y205541D01*
X287456Y205584D01*
X287569Y205621D01*
X287604Y205643D01*
X287641Y205658D01*
X287737Y205727D01*
X287838Y205791D01*
X287866Y205821D01*
X287899Y205844D01*
X287975Y205936D01*
X288056Y206023D01*
X288076Y206058D01*
X288101Y206089D01*
X288152Y206197D01*
X288210Y206301D01*
X288220Y206341D01*
X288237Y206377D01*
X288259Y206494D01*
X288289Y206609D01*
X288293Y206669D01*
X288297Y206689D01*
X288295Y206710D01*
X288299Y206770D01*
X288299Y221485D01*
X290431Y226631D01*
X294369Y230569D01*
X299515Y232701D01*
X305085Y232701D01*
X310231Y230569D01*
X314102Y226698D01*
X314197Y226624D01*
X314286Y226546D01*
X314322Y226527D01*
X314354Y226503D01*
X314463Y226455D01*
X314569Y226401D01*
X314608Y226392D01*
X314646Y226376D01*
X314763Y226358D01*
X314879Y226332D01*
X314920Y226333D01*
X314960Y226326D01*
X315078Y226338D01*
X315197Y226341D01*
X315236Y226352D01*
X315276Y226356D01*
X315389Y226397D01*
X315503Y226430D01*
X315537Y226450D01*
X315576Y226464D01*
X315674Y226531D01*
X315777Y226591D01*
X315822Y226631D01*
X315839Y226642D01*
X315852Y226658D01*
X315897Y226698D01*
X319769Y230569D01*
X324915Y232701D01*
X330485Y232701D01*
X335631Y230569D01*
X339569Y226631D01*
X341701Y221485D01*
X341701Y217737D01*
X341718Y217599D01*
X341731Y217460D01*
X341738Y217441D01*
X341741Y217421D01*
X341792Y217292D01*
X341839Y217161D01*
X341850Y217144D01*
X341858Y217125D01*
X341939Y217013D01*
X342017Y216898D01*
X342033Y216884D01*
X342044Y216868D01*
X342152Y216779D01*
X342256Y216687D01*
X342274Y216678D01*
X342289Y216665D01*
X342415Y216606D01*
X342539Y216543D01*
X342559Y216538D01*
X342577Y216530D01*
X342713Y216504D01*
X342849Y216473D01*
X342870Y216474D01*
X342889Y216470D01*
X343028Y216479D01*
X343167Y216483D01*
X343187Y216488D01*
X343207Y216490D01*
X343339Y216532D01*
X343473Y216571D01*
X343490Y216581D01*
X343509Y216588D01*
X343627Y216662D01*
X343747Y216733D01*
X343768Y216751D01*
X343778Y216758D01*
X343792Y216773D01*
X343867Y216839D01*
X362327Y235299D01*
X362329Y235300D01*
X362333Y235305D01*
X362381Y235352D01*
X362410Y235391D01*
X362479Y235457D01*
X362506Y235500D01*
X362539Y235538D01*
X362567Y235593D01*
X362576Y235604D01*
X362590Y235638D01*
X362646Y235727D01*
X362661Y235776D01*
X362684Y235822D01*
X362699Y235889D01*
X362702Y235895D01*
X362705Y235916D01*
X362708Y235928D01*
X362740Y236031D01*
X362743Y236082D01*
X362754Y236132D01*
X362751Y236207D01*
X362752Y236209D01*
X362751Y236216D01*
X362750Y236240D01*
X362756Y236349D01*
X362746Y236399D01*
X362744Y236450D01*
X362714Y236554D01*
X362692Y236660D01*
X362670Y236706D01*
X362656Y236755D01*
X362601Y236849D01*
X362553Y236946D01*
X362520Y236985D01*
X362494Y237029D01*
X362388Y237150D01*
X341974Y257564D01*
X341896Y257624D01*
X341824Y257692D01*
X341771Y257721D01*
X341723Y257758D01*
X341632Y257798D01*
X341545Y257846D01*
X341487Y257861D01*
X341431Y257885D01*
X341333Y257900D01*
X341238Y257925D01*
X341138Y257931D01*
X341117Y257935D01*
X341105Y257933D01*
X341077Y257935D01*
X231600Y257935D01*
X227166Y259772D01*
X178772Y308166D01*
X176935Y312600D01*
X176935Y320400D01*
X178772Y324834D01*
X182166Y328228D01*
X186600Y330065D01*
X191400Y330065D01*
X195834Y328228D01*
X197103Y326960D01*
X197197Y326887D01*
X197286Y326808D01*
X197322Y326790D01*
X197354Y326765D01*
X197463Y326717D01*
X197569Y326663D01*
X197608Y326654D01*
X197646Y326638D01*
X197763Y326620D01*
X197879Y326594D01*
X197920Y326595D01*
X197960Y326588D01*
X198078Y326600D01*
X198197Y326603D01*
X198236Y326615D01*
X198276Y326618D01*
X198389Y326659D01*
X198503Y326692D01*
X198538Y326712D01*
X198576Y326726D01*
X198674Y326793D01*
X198777Y326853D01*
X198822Y326893D01*
X198839Y326904D01*
X198852Y326920D01*
X198898Y326960D01*
X201666Y329728D01*
X206100Y331565D01*
X212400Y331565D01*
X214653Y330631D01*
X214720Y330613D01*
X214785Y330585D01*
X214873Y330571D01*
X214960Y330547D01*
X215030Y330546D01*
X215099Y330535D01*
X215188Y330544D01*
X215278Y330542D01*
X215346Y330559D01*
X215415Y330565D01*
X215500Y330596D01*
X215587Y330617D01*
X215649Y330649D01*
X215715Y330673D01*
X215789Y330723D01*
X215868Y330765D01*
X215920Y330812D01*
X215978Y330851D01*
X216037Y330919D01*
X216104Y330979D01*
X216142Y331037D01*
X216188Y331090D01*
X216229Y331170D01*
X216278Y331245D01*
X216301Y331311D01*
X216333Y331373D01*
X216352Y331461D01*
X216382Y331546D01*
X216387Y331615D01*
X216402Y331683D01*
X216400Y331773D01*
X216407Y331863D01*
X216395Y331931D01*
X216393Y332001D01*
X216368Y332087D01*
X216352Y332176D01*
X216324Y332240D01*
X216304Y332307D01*
X216259Y332384D01*
X216222Y332466D01*
X216178Y332521D01*
X216143Y332581D01*
X216036Y332701D01*
X200974Y347764D01*
X200896Y347824D01*
X200824Y347892D01*
X200771Y347921D01*
X200723Y347958D01*
X200632Y347998D01*
X200545Y348046D01*
X200487Y348061D01*
X200431Y348085D01*
X200333Y348100D01*
X200238Y348125D01*
X200138Y348131D01*
X200117Y348135D01*
X200105Y348133D01*
X200077Y348135D01*
X70840Y348135D01*
X70703Y348118D01*
X70564Y348105D01*
X70545Y348098D01*
X70524Y348095D01*
X70396Y348044D01*
X70264Y347997D01*
X70248Y347986D01*
X70229Y347978D01*
X70116Y347897D01*
X70001Y347819D01*
X69988Y347803D01*
X69971Y347792D01*
X69883Y347684D01*
X69791Y347580D01*
X69782Y347562D01*
X69769Y347547D01*
X69709Y347421D01*
X69646Y347297D01*
X69642Y347277D01*
X69633Y347259D01*
X69607Y347123D01*
X69577Y346987D01*
X69577Y346966D01*
X69573Y346947D01*
X69582Y346808D01*
X69586Y346669D01*
X69592Y346649D01*
X69593Y346629D01*
X69636Y346497D01*
X69675Y346363D01*
X69685Y346346D01*
X69691Y346327D01*
X69766Y346209D01*
X69836Y346089D01*
X69855Y346068D01*
X69861Y346058D01*
X69876Y346044D01*
X69943Y345969D01*
X72263Y343648D01*
X74641Y337907D01*
X74641Y331693D01*
X72263Y325952D01*
X67868Y321557D01*
X62127Y319179D01*
X40673Y319179D01*
X34932Y321557D01*
X30537Y325952D01*
X28159Y331693D01*
X28159Y337907D01*
X30537Y343648D01*
X33491Y346602D01*
X33565Y346697D01*
X33643Y346786D01*
X33662Y346822D01*
X33686Y346854D01*
X33734Y346963D01*
X33788Y347069D01*
X33797Y347108D01*
X33813Y347146D01*
X33831Y347263D01*
X33857Y347379D01*
X33856Y347420D01*
X33863Y347460D01*
X33851Y347578D01*
X33848Y347697D01*
X33837Y347736D01*
X33833Y347776D01*
X33792Y347889D01*
X33759Y348003D01*
X33739Y348037D01*
X33725Y348076D01*
X33658Y348174D01*
X33598Y348277D01*
X33558Y348322D01*
X33547Y348339D01*
X33531Y348352D01*
X33491Y348397D01*
X30537Y351352D01*
X28159Y357093D01*
X28159Y363307D01*
X30537Y369048D01*
X33491Y372002D01*
X33565Y372097D01*
X33643Y372186D01*
X33662Y372222D01*
X33686Y372254D01*
X33734Y372363D01*
X33788Y372469D01*
X33797Y372508D01*
X33813Y372546D01*
X33831Y372663D01*
X33857Y372779D01*
X33856Y372820D01*
X33863Y372860D01*
X33851Y372978D01*
X33848Y373097D01*
X33837Y373136D01*
X33833Y373176D01*
X33792Y373289D01*
X33759Y373403D01*
X33739Y373437D01*
X33725Y373476D01*
X33658Y373574D01*
X33598Y373677D01*
X33558Y373722D01*
X33547Y373739D01*
X33531Y373752D01*
X33491Y373797D01*
X30537Y376752D01*
X28159Y382493D01*
X28159Y388707D01*
X30537Y394448D01*
X34932Y398843D01*
X38121Y400164D01*
X38250Y400237D01*
X38381Y400309D01*
X38388Y400316D01*
X38397Y400321D01*
X38504Y400425D01*
X38613Y400527D01*
X38618Y400535D01*
X38626Y400542D01*
X38703Y400669D01*
X38783Y400795D01*
X38786Y400805D01*
X38792Y400814D01*
X38836Y400956D01*
X38882Y401097D01*
X38882Y401108D01*
X38885Y401118D01*
X38892Y401266D01*
X38902Y401415D01*
X38900Y401425D01*
X38901Y401435D01*
X38870Y401581D01*
X38843Y401727D01*
X38838Y401737D01*
X38836Y401747D01*
X38770Y401881D01*
X38708Y402015D01*
X38701Y402023D01*
X38697Y402032D01*
X38600Y402145D01*
X38505Y402260D01*
X38494Y402269D01*
X38490Y402274D01*
X38478Y402283D01*
X38381Y402363D01*
X37161Y403250D01*
X36030Y404381D01*
X35090Y405675D01*
X34364Y407100D01*
X33921Y408461D01*
X50130Y408461D01*
X50248Y408476D01*
X50367Y408483D01*
X50405Y408496D01*
X50445Y408501D01*
X50556Y408544D01*
X50669Y408581D01*
X50703Y408603D01*
X50741Y408618D01*
X50837Y408688D01*
X50938Y408751D01*
X50966Y408781D01*
X50998Y408804D01*
X51074Y408896D01*
X51156Y408983D01*
X51175Y409018D01*
X51201Y409049D01*
X51252Y409157D01*
X51309Y409261D01*
X51320Y409301D01*
X51337Y409337D01*
X51359Y409454D01*
X51389Y409569D01*
X51393Y409630D01*
X51397Y409650D01*
X51395Y409670D01*
X51399Y409730D01*
X51399Y412270D01*
X51384Y412388D01*
X51377Y412507D01*
X51364Y412545D01*
X51359Y412585D01*
X51315Y412696D01*
X51279Y412809D01*
X51257Y412844D01*
X51242Y412881D01*
X51172Y412977D01*
X51109Y413078D01*
X51079Y413106D01*
X51055Y413139D01*
X50964Y413214D01*
X50877Y413296D01*
X50842Y413316D01*
X50810Y413341D01*
X50703Y413392D01*
X50598Y413450D01*
X50559Y413460D01*
X50523Y413477D01*
X50406Y413499D01*
X50291Y413529D01*
X50230Y413533D01*
X50210Y413537D01*
X50190Y413535D01*
X50130Y413539D01*
X33921Y413539D01*
X34364Y414900D01*
X35090Y416325D01*
X36030Y417619D01*
X37161Y418750D01*
X38381Y419637D01*
X38489Y419738D01*
X38600Y419839D01*
X38606Y419848D01*
X38613Y419855D01*
X38693Y419980D01*
X38775Y420105D01*
X38778Y420114D01*
X38783Y420123D01*
X38830Y420265D01*
X38878Y420405D01*
X38879Y420416D01*
X38882Y420425D01*
X38891Y420573D01*
X38903Y420722D01*
X38901Y420733D01*
X38902Y420743D01*
X38874Y420889D01*
X38849Y421036D01*
X38844Y421045D01*
X38842Y421055D01*
X38779Y421190D01*
X38718Y421326D01*
X38712Y421334D01*
X38707Y421343D01*
X38613Y421458D01*
X38519Y421574D01*
X38511Y421580D01*
X38505Y421588D01*
X38384Y421676D01*
X38265Y421765D01*
X38253Y421772D01*
X38248Y421775D01*
X38234Y421781D01*
X38121Y421836D01*
X34932Y423157D01*
X30537Y427552D01*
X28159Y433293D01*
X28159Y439507D01*
X30537Y445248D01*
X34932Y449643D01*
X40673Y452021D01*
X62127Y452021D01*
X67868Y449643D01*
X68675Y448836D01*
X68753Y448776D01*
X68825Y448708D01*
X68878Y448679D01*
X68926Y448642D01*
X69017Y448602D01*
X69103Y448554D01*
X69162Y448539D01*
X69218Y448515D01*
X69316Y448500D01*
X69411Y448475D01*
X69511Y448469D01*
X69532Y448465D01*
X69544Y448467D01*
X69572Y448465D01*
X74500Y448465D01*
X78934Y446628D01*
X138126Y387436D01*
X138204Y387376D01*
X138276Y387308D01*
X138329Y387279D01*
X138377Y387242D01*
X138468Y387202D01*
X138555Y387154D01*
X138613Y387139D01*
X138669Y387115D01*
X138767Y387100D01*
X138862Y387075D01*
X138962Y387069D01*
X138983Y387065D01*
X138995Y387067D01*
X139023Y387065D01*
X218600Y387065D01*
X223034Y385228D01*
X260890Y347372D01*
X260968Y347312D01*
X261040Y347244D01*
X261093Y347215D01*
X261141Y347178D01*
X261232Y347138D01*
X261319Y347090D01*
X261377Y347075D01*
X261433Y347051D01*
X261531Y347036D01*
X261626Y347011D01*
X261726Y347005D01*
X261747Y347001D01*
X261759Y347003D01*
X261787Y347001D01*
X266985Y347001D01*
X272131Y344869D01*
X275369Y341631D01*
X275478Y341546D01*
X275585Y341458D01*
X275604Y341449D01*
X275620Y341437D01*
X275748Y341381D01*
X275873Y341322D01*
X275893Y341318D01*
X275912Y341310D01*
X276050Y341288D01*
X276186Y341262D01*
X276206Y341264D01*
X276226Y341260D01*
X276365Y341273D01*
X276503Y341282D01*
X276522Y341288D01*
X276542Y341290D01*
X276674Y341337D01*
X276805Y341380D01*
X276823Y341391D01*
X276842Y341398D01*
X276957Y341476D01*
X277074Y341550D01*
X277088Y341565D01*
X277105Y341576D01*
X277197Y341681D01*
X277292Y341782D01*
X277302Y341800D01*
X277315Y341815D01*
X277379Y341939D01*
X277446Y342060D01*
X277451Y342080D01*
X277460Y342098D01*
X277490Y342234D01*
X277525Y342368D01*
X277527Y342396D01*
X277530Y342408D01*
X277529Y342429D01*
X277535Y342529D01*
X277535Y454000D01*
X279372Y458434D01*
X312524Y491586D01*
X312584Y491664D01*
X312652Y491736D01*
X312674Y491776D01*
X312691Y491796D01*
X312697Y491809D01*
X312718Y491837D01*
X312758Y491928D01*
X312806Y492015D01*
X312820Y492070D01*
X312826Y492084D01*
X312827Y492088D01*
X312845Y492129D01*
X312860Y492227D01*
X312885Y492322D01*
X312891Y492422D01*
X312895Y492443D01*
X312893Y492455D01*
X312895Y492483D01*
X312895Y495102D01*
X312878Y495240D01*
X312865Y495379D01*
X312858Y495398D01*
X312855Y495418D01*
X312804Y495547D01*
X312757Y495678D01*
X312746Y495695D01*
X312738Y495714D01*
X312657Y495826D01*
X312579Y495941D01*
X312563Y495955D01*
X312552Y495971D01*
X312444Y496060D01*
X312340Y496152D01*
X312322Y496161D01*
X312307Y496174D01*
X312181Y496233D01*
X312057Y496296D01*
X312037Y496301D01*
X312019Y496309D01*
X311883Y496335D01*
X311747Y496366D01*
X311726Y496365D01*
X311707Y496369D01*
X311568Y496360D01*
X311429Y496356D01*
X311409Y496351D01*
X311389Y496349D01*
X311257Y496307D01*
X311123Y496268D01*
X311106Y496258D01*
X311087Y496251D01*
X310969Y496177D01*
X310849Y496106D01*
X310828Y496088D01*
X310818Y496081D01*
X310804Y496066D01*
X310729Y496000D01*
X306346Y491617D01*
X292774Y491617D01*
X283897Y500495D01*
X283803Y500568D01*
X283713Y500646D01*
X283677Y500665D01*
X283645Y500690D01*
X283536Y500737D01*
X283430Y500791D01*
X283391Y500800D01*
X283354Y500816D01*
X283236Y500835D01*
X283120Y500861D01*
X283080Y500859D01*
X283039Y500866D01*
X282921Y500855D01*
X282802Y500851D01*
X282763Y500840D01*
X282723Y500836D01*
X282611Y500796D01*
X282496Y500763D01*
X282462Y500742D01*
X282424Y500728D01*
X282325Y500661D01*
X282223Y500601D01*
X282177Y500561D01*
X282160Y500550D01*
X282147Y500534D01*
X282102Y500495D01*
X278684Y497077D01*
X276659Y497077D01*
X276659Y506770D01*
X276644Y506888D01*
X276637Y507007D01*
X276624Y507045D01*
X276619Y507085D01*
X276576Y507196D01*
X276539Y507309D01*
X276517Y507343D01*
X276502Y507381D01*
X276433Y507477D01*
X276369Y507578D01*
X276339Y507606D01*
X276316Y507638D01*
X276224Y507714D01*
X276137Y507796D01*
X276102Y507815D01*
X276071Y507841D01*
X275963Y507892D01*
X275859Y507949D01*
X275819Y507959D01*
X275783Y507977D01*
X275676Y507997D01*
X275706Y508001D01*
X275816Y508045D01*
X275929Y508081D01*
X275964Y508103D01*
X276001Y508118D01*
X276097Y508188D01*
X276198Y508251D01*
X276226Y508281D01*
X276259Y508305D01*
X276335Y508396D01*
X276416Y508483D01*
X276436Y508518D01*
X276461Y508550D01*
X276512Y508657D01*
X276570Y508762D01*
X276580Y508801D01*
X276597Y508837D01*
X276619Y508954D01*
X276649Y509070D01*
X276653Y509130D01*
X276657Y509150D01*
X276655Y509170D01*
X276659Y509230D01*
X276659Y518923D01*
X278684Y518923D01*
X282102Y515505D01*
X282196Y515432D01*
X282285Y515354D01*
X282321Y515335D01*
X282353Y515310D01*
X282462Y515263D01*
X282568Y515209D01*
X282608Y515200D01*
X282645Y515184D01*
X282763Y515165D01*
X282879Y515139D01*
X282919Y515141D01*
X282959Y515134D01*
X283078Y515145D01*
X283196Y515149D01*
X283235Y515160D01*
X283276Y515164D01*
X283388Y515204D01*
X283502Y515237D01*
X283537Y515258D01*
X283575Y515272D01*
X283674Y515339D01*
X283776Y515399D01*
X283821Y515439D01*
X283838Y515450D01*
X283851Y515466D01*
X283897Y515505D01*
X292774Y524383D01*
X306346Y524383D01*
X311363Y519366D01*
X311457Y519293D01*
X311546Y519214D01*
X311582Y519196D01*
X311614Y519171D01*
X311723Y519124D01*
X311829Y519070D01*
X311868Y519061D01*
X311906Y519045D01*
X312023Y519026D01*
X312139Y519000D01*
X312180Y519001D01*
X312220Y518995D01*
X312338Y519006D01*
X312457Y519010D01*
X312496Y519021D01*
X312536Y519025D01*
X312649Y519065D01*
X312763Y519098D01*
X312798Y519119D01*
X312836Y519132D01*
X312934Y519199D01*
X313037Y519260D01*
X313082Y519300D01*
X313099Y519311D01*
X313112Y519326D01*
X313158Y519366D01*
X318174Y524383D01*
X331746Y524383D01*
X336763Y519366D01*
X336857Y519293D01*
X336946Y519214D01*
X336982Y519196D01*
X337014Y519171D01*
X337123Y519124D01*
X337229Y519070D01*
X337268Y519061D01*
X337306Y519045D01*
X337423Y519026D01*
X337539Y519000D01*
X337580Y519001D01*
X337620Y518995D01*
X337738Y519006D01*
X337857Y519010D01*
X337896Y519021D01*
X337936Y519025D01*
X338049Y519065D01*
X338163Y519098D01*
X338198Y519119D01*
X338236Y519132D01*
X338334Y519199D01*
X338437Y519260D01*
X338482Y519300D01*
X338499Y519311D01*
X338512Y519326D01*
X338558Y519366D01*
X343574Y524383D01*
X357146Y524383D01*
X362163Y519366D01*
X362257Y519293D01*
X362346Y519214D01*
X362382Y519196D01*
X362414Y519171D01*
X362523Y519124D01*
X362629Y519070D01*
X362668Y519061D01*
X362706Y519045D01*
X362823Y519026D01*
X362939Y519000D01*
X362980Y519001D01*
X363020Y518995D01*
X363138Y519006D01*
X363257Y519010D01*
X363296Y519021D01*
X363336Y519025D01*
X363449Y519065D01*
X363563Y519098D01*
X363598Y519119D01*
X363636Y519132D01*
X363734Y519199D01*
X363837Y519260D01*
X363882Y519300D01*
X363899Y519311D01*
X363912Y519326D01*
X363958Y519366D01*
X368974Y524383D01*
X382546Y524383D01*
X387563Y519366D01*
X387657Y519293D01*
X387746Y519214D01*
X387782Y519196D01*
X387814Y519171D01*
X387923Y519124D01*
X388029Y519070D01*
X388068Y519061D01*
X388106Y519045D01*
X388223Y519026D01*
X388339Y519000D01*
X388380Y519001D01*
X388420Y518995D01*
X388538Y519006D01*
X388657Y519010D01*
X388696Y519021D01*
X388736Y519025D01*
X388849Y519065D01*
X388963Y519098D01*
X388998Y519119D01*
X389036Y519132D01*
X389134Y519199D01*
X389237Y519260D01*
X389282Y519300D01*
X389299Y519311D01*
X389312Y519326D01*
X389358Y519366D01*
X394374Y524383D01*
X407946Y524383D01*
X412963Y519366D01*
X413057Y519293D01*
X413146Y519214D01*
X413182Y519196D01*
X413214Y519171D01*
X413323Y519124D01*
X413429Y519070D01*
X413468Y519061D01*
X413506Y519045D01*
X413623Y519026D01*
X413739Y519000D01*
X413780Y519001D01*
X413820Y518995D01*
X413938Y519006D01*
X414057Y519010D01*
X414096Y519021D01*
X414136Y519025D01*
X414249Y519065D01*
X414363Y519098D01*
X414398Y519119D01*
X414436Y519132D01*
X414534Y519199D01*
X414637Y519260D01*
X414682Y519300D01*
X414699Y519311D01*
X414712Y519326D01*
X414758Y519366D01*
X419774Y524383D01*
X433346Y524383D01*
X442943Y514786D01*
X442943Y501214D01*
X433346Y491617D01*
X419774Y491617D01*
X414758Y496634D01*
X414663Y496707D01*
X414574Y496786D01*
X414538Y496804D01*
X414506Y496829D01*
X414397Y496876D01*
X414291Y496930D01*
X414252Y496939D01*
X414214Y496955D01*
X414097Y496974D01*
X413981Y497000D01*
X413940Y496999D01*
X413900Y497005D01*
X413782Y496994D01*
X413663Y496990D01*
X413624Y496979D01*
X413584Y496975D01*
X413471Y496935D01*
X413357Y496902D01*
X413323Y496881D01*
X413284Y496868D01*
X413186Y496801D01*
X413083Y496740D01*
X413038Y496700D01*
X413021Y496689D01*
X413008Y496674D01*
X412963Y496634D01*
X407946Y491617D01*
X394374Y491617D01*
X389358Y496634D01*
X389263Y496707D01*
X389174Y496786D01*
X389138Y496804D01*
X389106Y496829D01*
X388997Y496876D01*
X388891Y496930D01*
X388852Y496939D01*
X388814Y496955D01*
X388697Y496974D01*
X388581Y497000D01*
X388540Y496999D01*
X388500Y497005D01*
X388382Y496994D01*
X388263Y496990D01*
X388224Y496979D01*
X388184Y496975D01*
X388071Y496935D01*
X387957Y496902D01*
X387923Y496881D01*
X387884Y496868D01*
X387786Y496801D01*
X387683Y496740D01*
X387638Y496700D01*
X387621Y496689D01*
X387608Y496674D01*
X387563Y496634D01*
X382546Y491617D01*
X368974Y491617D01*
X365231Y495360D01*
X365122Y495445D01*
X365015Y495534D01*
X364996Y495542D01*
X364980Y495555D01*
X364852Y495610D01*
X364727Y495669D01*
X364707Y495673D01*
X364688Y495681D01*
X364550Y495703D01*
X364414Y495729D01*
X364394Y495728D01*
X364374Y495731D01*
X364235Y495718D01*
X364097Y495709D01*
X364078Y495703D01*
X364058Y495701D01*
X363926Y495654D01*
X363795Y495611D01*
X363777Y495600D01*
X363758Y495594D01*
X363643Y495516D01*
X363526Y495441D01*
X363512Y495426D01*
X363495Y495415D01*
X363403Y495311D01*
X363308Y495210D01*
X363298Y495192D01*
X363285Y495177D01*
X363221Y495052D01*
X363154Y494931D01*
X363149Y494911D01*
X363140Y494893D01*
X363110Y494758D01*
X363075Y494623D01*
X363073Y494595D01*
X363070Y494583D01*
X363071Y494563D01*
X363065Y494462D01*
X363065Y486600D01*
X361228Y482166D01*
X327436Y448374D01*
X327376Y448296D01*
X327308Y448224D01*
X327279Y448171D01*
X327242Y448123D01*
X327202Y448032D01*
X327154Y447945D01*
X327139Y447887D01*
X327115Y447831D01*
X327100Y447733D01*
X327075Y447638D01*
X327069Y447538D01*
X327065Y447517D01*
X327067Y447505D01*
X327065Y447477D01*
X327065Y342529D01*
X327082Y342392D01*
X327095Y342253D01*
X327102Y342233D01*
X327105Y342213D01*
X327156Y342085D01*
X327203Y341953D01*
X327214Y341937D01*
X327222Y341918D01*
X327303Y341805D01*
X327381Y341690D01*
X327397Y341677D01*
X327408Y341660D01*
X327516Y341572D01*
X327620Y341480D01*
X327638Y341471D01*
X327653Y341458D01*
X327779Y341398D01*
X327903Y341335D01*
X327923Y341331D01*
X327941Y341322D01*
X328077Y341296D01*
X328213Y341265D01*
X328234Y341266D01*
X328253Y341262D01*
X328392Y341271D01*
X328531Y341275D01*
X328551Y341281D01*
X328571Y341282D01*
X328703Y341325D01*
X328837Y341364D01*
X328854Y341374D01*
X328873Y341380D01*
X328991Y341455D01*
X329111Y341525D01*
X329132Y341544D01*
X329142Y341550D01*
X329156Y341565D01*
X329231Y341631D01*
X332469Y344869D01*
X337615Y347001D01*
X343185Y347001D01*
X348331Y344869D01*
X352203Y340998D01*
X352297Y340924D01*
X352386Y340846D01*
X352422Y340827D01*
X352454Y340803D01*
X352563Y340755D01*
X352669Y340701D01*
X352708Y340692D01*
X352746Y340676D01*
X352863Y340658D01*
X352979Y340632D01*
X353020Y340633D01*
X353060Y340626D01*
X353178Y340638D01*
X353297Y340641D01*
X353336Y340652D01*
X353376Y340656D01*
X353489Y340697D01*
X353603Y340730D01*
X353638Y340750D01*
X353676Y340764D01*
X353774Y340831D01*
X353877Y340891D01*
X353922Y340931D01*
X353939Y340942D01*
X353952Y340958D01*
X353998Y340998D01*
X357869Y344869D01*
X363015Y347001D01*
X368585Y347001D01*
X373731Y344869D01*
X377603Y340998D01*
X377697Y340924D01*
X377786Y340846D01*
X377822Y340827D01*
X377854Y340803D01*
X377963Y340755D01*
X378069Y340701D01*
X378108Y340692D01*
X378146Y340676D01*
X378263Y340658D01*
X378379Y340632D01*
X378420Y340633D01*
X378460Y340626D01*
X378578Y340638D01*
X378697Y340641D01*
X378736Y340652D01*
X378776Y340656D01*
X378889Y340697D01*
X379003Y340730D01*
X379038Y340750D01*
X379076Y340764D01*
X379174Y340831D01*
X379277Y340891D01*
X379322Y340931D01*
X379339Y340942D01*
X379352Y340958D01*
X379398Y340998D01*
X383269Y344869D01*
X388415Y347001D01*
X393985Y347001D01*
X399131Y344869D01*
X403003Y340998D01*
X403097Y340924D01*
X403186Y340846D01*
X403222Y340827D01*
X403254Y340803D01*
X403363Y340755D01*
X403469Y340701D01*
X403508Y340692D01*
X403546Y340676D01*
X403663Y340658D01*
X403779Y340632D01*
X403820Y340633D01*
X403860Y340626D01*
X403978Y340638D01*
X404097Y340641D01*
X404136Y340652D01*
X404176Y340656D01*
X404289Y340697D01*
X404403Y340730D01*
X404438Y340750D01*
X404476Y340764D01*
X404574Y340831D01*
X404677Y340891D01*
X404722Y340931D01*
X404739Y340942D01*
X404752Y340958D01*
X404798Y340998D01*
X408669Y344869D01*
X413815Y347001D01*
X419385Y347001D01*
X424531Y344869D01*
X428403Y340998D01*
X428497Y340924D01*
X428586Y340846D01*
X428622Y340827D01*
X428654Y340803D01*
X428763Y340755D01*
X428869Y340701D01*
X428908Y340692D01*
X428946Y340676D01*
X429063Y340658D01*
X429179Y340632D01*
X429220Y340633D01*
X429260Y340626D01*
X429378Y340638D01*
X429497Y340641D01*
X429536Y340652D01*
X429576Y340656D01*
X429689Y340697D01*
X429803Y340730D01*
X429838Y340750D01*
X429876Y340764D01*
X429974Y340831D01*
X430077Y340891D01*
X430122Y340931D01*
X430139Y340942D01*
X430152Y340958D01*
X430198Y340998D01*
X434069Y344869D01*
X439215Y347001D01*
X441230Y347001D01*
X441348Y347016D01*
X441467Y347023D01*
X441505Y347036D01*
X441546Y347041D01*
X441656Y347084D01*
X441769Y347121D01*
X441804Y347143D01*
X441841Y347158D01*
X441937Y347227D01*
X442038Y347291D01*
X442066Y347321D01*
X442099Y347344D01*
X442175Y347436D01*
X442256Y347523D01*
X442276Y347558D01*
X442301Y347589D01*
X442352Y347697D01*
X442410Y347801D01*
X442420Y347841D01*
X442437Y347877D01*
X442459Y347994D01*
X442489Y348109D01*
X442493Y348169D01*
X442497Y348189D01*
X442495Y348210D01*
X442499Y348270D01*
X442499Y372503D01*
X442487Y372602D01*
X442484Y372701D01*
X442467Y372759D01*
X442459Y372819D01*
X442423Y372911D01*
X442395Y373006D01*
X442365Y373058D01*
X442342Y373115D01*
X442284Y373195D01*
X442234Y373280D01*
X442168Y373355D01*
X442156Y373372D01*
X442146Y373380D01*
X442128Y373401D01*
X419107Y396421D01*
X419013Y396494D01*
X418924Y396573D01*
X418888Y396591D01*
X418856Y396616D01*
X418746Y396664D01*
X418641Y396718D01*
X418601Y396726D01*
X418564Y396743D01*
X418446Y396761D01*
X418330Y396787D01*
X418290Y396786D01*
X418250Y396792D01*
X418131Y396781D01*
X418012Y396778D01*
X417974Y396766D01*
X417933Y396763D01*
X417821Y396722D01*
X417707Y396689D01*
X417672Y396669D01*
X417634Y396655D01*
X417536Y396588D01*
X417433Y396528D01*
X417388Y396488D01*
X417371Y396476D01*
X417357Y396461D01*
X417312Y396421D01*
X416258Y395367D01*
X414964Y394427D01*
X413539Y393701D01*
X412018Y393206D01*
X410438Y392956D01*
X404558Y392956D01*
X404558Y401847D01*
X404543Y401965D01*
X404535Y402084D01*
X404523Y402122D01*
X404518Y402162D01*
X404474Y402273D01*
X404437Y402386D01*
X404416Y402421D01*
X404401Y402458D01*
X404331Y402554D01*
X404267Y402655D01*
X404238Y402683D01*
X404214Y402715D01*
X404122Y402791D01*
X404036Y402873D01*
X404000Y402892D01*
X403969Y402918D01*
X403861Y402969D01*
X403757Y403026D01*
X403718Y403037D01*
X403681Y403054D01*
X403565Y403076D01*
X403449Y403106D01*
X403389Y403110D01*
X403369Y403114D01*
X403349Y403112D01*
X403288Y403116D01*
X402018Y403116D01*
X402018Y404387D01*
X402003Y404505D01*
X401995Y404624D01*
X401983Y404662D01*
X401978Y404703D01*
X401934Y404813D01*
X401897Y404926D01*
X401876Y404961D01*
X401861Y404998D01*
X401791Y405094D01*
X401727Y405195D01*
X401698Y405223D01*
X401674Y405256D01*
X401582Y405331D01*
X401495Y405413D01*
X401460Y405433D01*
X401429Y405458D01*
X401321Y405509D01*
X401217Y405567D01*
X401178Y405577D01*
X401141Y405594D01*
X401024Y405616D01*
X400909Y405646D01*
X400849Y405650D01*
X400829Y405654D01*
X400809Y405652D01*
X400748Y405656D01*
X384540Y405656D01*
X384982Y407017D01*
X385708Y408442D01*
X386648Y409736D01*
X387779Y410867D01*
X389000Y411754D01*
X389108Y411855D01*
X389218Y411956D01*
X389224Y411965D01*
X389232Y411972D01*
X389311Y412097D01*
X389393Y412222D01*
X389396Y412231D01*
X389402Y412240D01*
X389448Y412382D01*
X389496Y412522D01*
X389497Y412533D01*
X389500Y412542D01*
X389510Y412691D01*
X389522Y412839D01*
X389520Y412850D01*
X389520Y412860D01*
X389493Y413005D01*
X389467Y413153D01*
X389463Y413162D01*
X389461Y413172D01*
X389398Y413307D01*
X389337Y413443D01*
X389330Y413451D01*
X389326Y413460D01*
X389231Y413575D01*
X389138Y413691D01*
X389130Y413697D01*
X389123Y413705D01*
X389003Y413793D01*
X388884Y413882D01*
X388871Y413889D01*
X388866Y413892D01*
X388853Y413898D01*
X388739Y413953D01*
X385550Y415274D01*
X381156Y419669D01*
X378778Y425410D01*
X378778Y431624D01*
X381156Y437365D01*
X384110Y440320D01*
X384183Y440414D01*
X384262Y440503D01*
X384280Y440539D01*
X384305Y440571D01*
X384352Y440680D01*
X384406Y440786D01*
X384415Y440825D01*
X384431Y440863D01*
X384450Y440980D01*
X384476Y441096D01*
X384475Y441137D01*
X384481Y441177D01*
X384470Y441295D01*
X384466Y441414D01*
X384455Y441453D01*
X384451Y441493D01*
X384411Y441606D01*
X384378Y441720D01*
X384357Y441755D01*
X384344Y441793D01*
X384277Y441891D01*
X384216Y441994D01*
X384177Y442039D01*
X384165Y442056D01*
X384150Y442069D01*
X384110Y442115D01*
X381156Y445069D01*
X378778Y450810D01*
X378778Y457024D01*
X381156Y462765D01*
X385550Y467160D01*
X391291Y469538D01*
X412746Y469538D01*
X418487Y467160D01*
X419293Y466354D01*
X419371Y466293D01*
X419443Y466225D01*
X419497Y466196D01*
X419544Y466159D01*
X419635Y466119D01*
X419722Y466071D01*
X419781Y466056D01*
X419836Y466032D01*
X419934Y466017D01*
X420030Y465992D01*
X420130Y465986D01*
X420150Y465982D01*
X420163Y465984D01*
X420191Y465982D01*
X464580Y465982D01*
X464678Y465994D01*
X464778Y465997D01*
X464836Y466014D01*
X464896Y466022D01*
X464988Y466058D01*
X465083Y466086D01*
X465135Y466116D01*
X465192Y466139D01*
X465272Y466197D01*
X465357Y466247D01*
X465432Y466313D01*
X465449Y466325D01*
X465457Y466335D01*
X465478Y466354D01*
X466284Y467160D01*
X472025Y469538D01*
X493480Y469538D01*
X499221Y467160D01*
X500027Y466354D01*
X500105Y466293D01*
X500177Y466225D01*
X500230Y466196D01*
X500278Y466159D01*
X500369Y466119D01*
X500456Y466071D01*
X500514Y466056D01*
X500570Y466032D01*
X500668Y466017D01*
X500764Y465992D01*
X500864Y465986D01*
X500884Y465982D01*
X500896Y465984D01*
X500924Y465982D01*
X545314Y465982D01*
X545412Y465994D01*
X545511Y465997D01*
X545570Y466014D01*
X545630Y466022D01*
X545722Y466058D01*
X545817Y466086D01*
X545869Y466116D01*
X545925Y466139D01*
X546005Y466197D01*
X546091Y466247D01*
X546166Y466313D01*
X546183Y466325D01*
X546191Y466335D01*
X546212Y466354D01*
X547018Y467160D01*
X552759Y469538D01*
X574213Y469538D01*
X579955Y467160D01*
X584349Y462765D01*
X586727Y457024D01*
X586727Y450810D01*
X584349Y445069D01*
X581395Y442115D01*
X581322Y442020D01*
X581243Y441931D01*
X581225Y441895D01*
X581200Y441863D01*
X581153Y441754D01*
X581098Y441648D01*
X581090Y441609D01*
X581074Y441571D01*
X581055Y441454D01*
X581029Y441338D01*
X581030Y441297D01*
X581024Y441257D01*
X581035Y441139D01*
X581038Y441020D01*
X581050Y440981D01*
X581053Y440941D01*
X581094Y440829D01*
X581127Y440714D01*
X581147Y440680D01*
X581161Y440641D01*
X581228Y440543D01*
X581288Y440440D01*
X581328Y440395D01*
X581340Y440378D01*
X581355Y440365D01*
X581395Y440320D01*
X584349Y437365D01*
X586727Y431624D01*
X586727Y425410D01*
X584349Y419669D01*
X579955Y415274D01*
X576765Y413953D01*
X576636Y413880D01*
X576506Y413808D01*
X576498Y413801D01*
X576489Y413796D01*
X576382Y413692D01*
X576274Y413590D01*
X576268Y413582D01*
X576261Y413575D01*
X576183Y413448D01*
X576103Y413322D01*
X576100Y413312D01*
X576094Y413303D01*
X576051Y413161D01*
X576005Y413020D01*
X576004Y413009D01*
X576001Y412999D01*
X575994Y412851D01*
X575984Y412702D01*
X575986Y412692D01*
X575986Y412682D01*
X576016Y412536D01*
X576044Y412390D01*
X576048Y412381D01*
X576050Y412370D01*
X576116Y412236D01*
X576179Y412102D01*
X576185Y412094D01*
X576190Y412085D01*
X576287Y411971D01*
X576381Y411857D01*
X576392Y411848D01*
X576396Y411843D01*
X576408Y411834D01*
X576505Y411754D01*
X577725Y410867D01*
X578856Y409736D01*
X579796Y408442D01*
X580523Y407017D01*
X580965Y405656D01*
X564756Y405656D01*
X564638Y405641D01*
X564519Y405634D01*
X564481Y405621D01*
X564441Y405616D01*
X564330Y405573D01*
X564217Y405536D01*
X564183Y405514D01*
X564145Y405499D01*
X564049Y405429D01*
X563948Y405366D01*
X563921Y405336D01*
X563888Y405313D01*
X563812Y405221D01*
X563730Y405134D01*
X563711Y405099D01*
X563685Y405068D01*
X563634Y404960D01*
X563577Y404856D01*
X563567Y404816D01*
X563549Y404780D01*
X563527Y404663D01*
X563497Y404548D01*
X563494Y404487D01*
X563490Y404467D01*
X563491Y404447D01*
X563487Y404387D01*
X563487Y403116D01*
X563485Y403116D01*
X563485Y404387D01*
X563470Y404505D01*
X563463Y404624D01*
X563451Y404662D01*
X563446Y404703D01*
X563402Y404813D01*
X563365Y404926D01*
X563343Y404961D01*
X563328Y404998D01*
X563259Y405094D01*
X563195Y405195D01*
X563165Y405223D01*
X563142Y405256D01*
X563050Y405331D01*
X562963Y405413D01*
X562928Y405433D01*
X562897Y405458D01*
X562789Y405509D01*
X562685Y405567D01*
X562646Y405577D01*
X562609Y405594D01*
X562492Y405616D01*
X562377Y405646D01*
X562317Y405650D01*
X562297Y405654D01*
X562276Y405652D01*
X562216Y405656D01*
X546008Y405656D01*
X546450Y407017D01*
X547176Y408442D01*
X548116Y409736D01*
X549247Y410867D01*
X550467Y411754D01*
X550576Y411855D01*
X550686Y411956D01*
X550692Y411965D01*
X550699Y411972D01*
X550779Y412097D01*
X550861Y412222D01*
X550864Y412231D01*
X550870Y412240D01*
X550916Y412382D01*
X550964Y412522D01*
X550965Y412533D01*
X550968Y412542D01*
X550977Y412691D01*
X550989Y412839D01*
X550988Y412850D01*
X550988Y412860D01*
X550961Y413005D01*
X550935Y413153D01*
X550931Y413162D01*
X550929Y413172D01*
X550865Y413307D01*
X550804Y413443D01*
X550798Y413451D01*
X550793Y413460D01*
X550699Y413575D01*
X550606Y413691D01*
X550598Y413697D01*
X550591Y413705D01*
X550471Y413793D01*
X550352Y413882D01*
X550339Y413889D01*
X550334Y413892D01*
X550320Y413898D01*
X550207Y413953D01*
X547018Y415274D01*
X542624Y419669D01*
X540246Y425410D01*
X540246Y431624D01*
X542624Y437365D01*
X544944Y439686D01*
X545029Y439795D01*
X545118Y439902D01*
X545126Y439921D01*
X545139Y439937D01*
X545194Y440065D01*
X545253Y440190D01*
X545257Y440210D01*
X545265Y440229D01*
X545287Y440367D01*
X545313Y440503D01*
X545312Y440523D01*
X545315Y440543D01*
X545302Y440682D01*
X545293Y440820D01*
X545287Y440839D01*
X545285Y440859D01*
X545238Y440991D01*
X545195Y441122D01*
X545184Y441140D01*
X545177Y441159D01*
X545099Y441274D01*
X545025Y441391D01*
X545010Y441405D01*
X544999Y441422D01*
X544895Y441514D01*
X544793Y441609D01*
X544776Y441619D01*
X544760Y441632D01*
X544636Y441696D01*
X544515Y441763D01*
X544495Y441768D01*
X544477Y441777D01*
X544341Y441807D01*
X544207Y441842D01*
X544179Y441844D01*
X544167Y441847D01*
X544146Y441846D01*
X544046Y441852D01*
X502192Y441852D01*
X502055Y441835D01*
X501916Y441822D01*
X501897Y441815D01*
X501877Y441812D01*
X501748Y441761D01*
X501617Y441714D01*
X501600Y441703D01*
X501581Y441695D01*
X501469Y441614D01*
X501354Y441536D01*
X501340Y441520D01*
X501324Y441509D01*
X501235Y441401D01*
X501143Y441297D01*
X501134Y441279D01*
X501121Y441264D01*
X501062Y441138D01*
X500999Y441014D01*
X500994Y440994D01*
X500985Y440976D01*
X500959Y440840D01*
X500929Y440704D01*
X500930Y440683D01*
X500926Y440664D01*
X500934Y440525D01*
X500939Y440386D01*
X500944Y440366D01*
X500945Y440346D01*
X500988Y440214D01*
X501027Y440080D01*
X501037Y440063D01*
X501043Y440044D01*
X501118Y439926D01*
X501189Y439806D01*
X501207Y439785D01*
X501214Y439775D01*
X501229Y439761D01*
X501295Y439686D01*
X503615Y437365D01*
X505993Y431624D01*
X505993Y425346D01*
X505961Y425228D01*
X505960Y425199D01*
X505954Y425170D01*
X505958Y425040D01*
X505956Y424910D01*
X505963Y424882D01*
X505964Y424852D01*
X506000Y424727D01*
X506030Y424601D01*
X506044Y424575D01*
X506052Y424546D01*
X506118Y424435D01*
X506179Y424320D01*
X506198Y424298D01*
X506214Y424272D01*
X506320Y424152D01*
X635674Y294798D01*
X637501Y290387D01*
X637501Y141613D01*
X635674Y137202D01*
X560298Y61826D01*
X555887Y59999D01*
X488113Y59999D01*
X483702Y61826D01*
X481431Y64097D01*
X481322Y64182D01*
X481215Y64271D01*
X481196Y64279D01*
X481180Y64292D01*
X481052Y64347D01*
X480927Y64406D01*
X480907Y64410D01*
X480888Y64418D01*
X480750Y64440D01*
X480614Y64466D01*
X480594Y64465D01*
X480574Y64468D01*
X480435Y64455D01*
X480297Y64446D01*
X480278Y64440D01*
X480258Y64438D01*
X480126Y64391D01*
X479995Y64348D01*
X479977Y64338D01*
X479958Y64331D01*
X479843Y64253D01*
X479726Y64178D01*
X479712Y64163D01*
X479695Y64152D01*
X479603Y64048D01*
X479508Y63947D01*
X479498Y63929D01*
X479485Y63914D01*
X479421Y63790D01*
X479354Y63668D01*
X479349Y63648D01*
X479340Y63630D01*
X479310Y63495D01*
X479275Y63360D01*
X479273Y63332D01*
X479270Y63320D01*
X479271Y63300D01*
X479265Y63199D01*
X479265Y37030D01*
X479277Y36931D01*
X479280Y36832D01*
X479297Y36774D01*
X479305Y36714D01*
X479341Y36622D01*
X479369Y36527D01*
X479399Y36475D01*
X479422Y36418D01*
X479480Y36338D01*
X479530Y36253D01*
X479596Y36178D01*
X479608Y36161D01*
X479618Y36153D01*
X479636Y36132D01*
X483583Y32186D01*
X483583Y18614D01*
X478566Y13598D01*
X478481Y13488D01*
X478392Y13381D01*
X478384Y13362D01*
X478371Y13346D01*
X478316Y13218D01*
X478257Y13093D01*
X478253Y13073D01*
X478245Y13054D01*
X478223Y12916D01*
X478197Y12781D01*
X478198Y12760D01*
X478195Y12740D01*
X478208Y12601D01*
X478217Y12463D01*
X478223Y12444D01*
X478225Y12424D01*
X478272Y12292D01*
X478315Y12161D01*
X478326Y12143D01*
X478332Y12124D01*
X478411Y12009D01*
X478485Y11892D01*
X478500Y11878D01*
X478511Y11861D01*
X478615Y11769D01*
X478717Y11674D01*
X478734Y11664D01*
X478749Y11651D01*
X478874Y11587D01*
X478995Y11520D01*
X479015Y11515D01*
X479033Y11506D01*
X479169Y11476D01*
X479303Y11441D01*
X479331Y11439D01*
X479343Y11437D01*
X479363Y11437D01*
X479464Y11431D01*
X505736Y11431D01*
X505874Y11448D01*
X506013Y11461D01*
X506032Y11468D01*
X506052Y11471D01*
X506181Y11522D01*
X506312Y11569D01*
X506329Y11580D01*
X506348Y11588D01*
X506460Y11669D01*
X506575Y11747D01*
X506589Y11763D01*
X506605Y11774D01*
X506694Y11882D01*
X506786Y11986D01*
X506795Y12004D01*
X506808Y12019D01*
X506867Y12145D01*
X506930Y12269D01*
X506935Y12289D01*
X506943Y12307D01*
X506969Y12443D01*
X507000Y12579D01*
X506999Y12600D01*
X507003Y12620D01*
X506994Y12758D01*
X506990Y12897D01*
X506985Y12917D01*
X506983Y12937D01*
X506940Y13069D01*
X506902Y13203D01*
X506892Y13220D01*
X506885Y13239D01*
X506811Y13357D01*
X506740Y13477D01*
X506722Y13498D01*
X506715Y13508D01*
X506700Y13522D01*
X506634Y13598D01*
X501617Y18614D01*
X501617Y32186D01*
X511214Y41783D01*
X524786Y41783D01*
X529802Y36766D01*
X529897Y36693D01*
X529986Y36614D01*
X530022Y36596D01*
X530054Y36571D01*
X530163Y36524D01*
X530269Y36470D01*
X530308Y36461D01*
X530346Y36445D01*
X530463Y36426D01*
X530579Y36400D01*
X530620Y36401D01*
X530660Y36395D01*
X530778Y36406D01*
X530897Y36410D01*
X530936Y36421D01*
X530976Y36425D01*
X531089Y36465D01*
X531203Y36498D01*
X531237Y36519D01*
X531276Y36532D01*
X531374Y36599D01*
X531477Y36660D01*
X531522Y36700D01*
X531539Y36711D01*
X531552Y36726D01*
X531597Y36766D01*
X536614Y41783D01*
X550186Y41783D01*
X555202Y36766D01*
X555297Y36693D01*
X555386Y36614D01*
X555422Y36596D01*
X555454Y36571D01*
X555563Y36524D01*
X555669Y36470D01*
X555708Y36461D01*
X555746Y36445D01*
X555863Y36426D01*
X555979Y36400D01*
X556020Y36401D01*
X556060Y36395D01*
X556178Y36406D01*
X556297Y36410D01*
X556336Y36421D01*
X556376Y36425D01*
X556489Y36465D01*
X556603Y36498D01*
X556637Y36519D01*
X556676Y36532D01*
X556774Y36599D01*
X556877Y36660D01*
X556922Y36700D01*
X556939Y36711D01*
X556952Y36726D01*
X556997Y36766D01*
X562014Y41783D01*
X575586Y41783D01*
X580603Y36766D01*
X580697Y36693D01*
X580786Y36614D01*
X580822Y36596D01*
X580854Y36571D01*
X580963Y36524D01*
X581069Y36470D01*
X581108Y36461D01*
X581146Y36445D01*
X581263Y36426D01*
X581379Y36400D01*
X581420Y36401D01*
X581460Y36395D01*
X581578Y36406D01*
X581697Y36410D01*
X581736Y36421D01*
X581776Y36425D01*
X581889Y36465D01*
X582003Y36498D01*
X582038Y36519D01*
X582076Y36532D01*
X582174Y36599D01*
X582277Y36660D01*
X582322Y36700D01*
X582339Y36711D01*
X582352Y36726D01*
X582398Y36766D01*
X587414Y41783D01*
X600986Y41783D01*
X606002Y36766D01*
X606097Y36693D01*
X606186Y36614D01*
X606222Y36596D01*
X606254Y36571D01*
X606363Y36524D01*
X606469Y36470D01*
X606508Y36461D01*
X606546Y36445D01*
X606663Y36426D01*
X606779Y36400D01*
X606820Y36401D01*
X606860Y36395D01*
X606978Y36406D01*
X607097Y36410D01*
X607136Y36421D01*
X607176Y36425D01*
X607289Y36465D01*
X607403Y36498D01*
X607437Y36519D01*
X607476Y36532D01*
X607574Y36599D01*
X607677Y36660D01*
X607722Y36700D01*
X607739Y36711D01*
X607752Y36726D01*
X607797Y36766D01*
X612814Y41783D01*
X626386Y41783D01*
X631402Y36766D01*
X631497Y36693D01*
X631586Y36614D01*
X631622Y36596D01*
X631654Y36571D01*
X631763Y36524D01*
X631869Y36470D01*
X631908Y36461D01*
X631946Y36445D01*
X632063Y36426D01*
X632179Y36400D01*
X632220Y36401D01*
X632260Y36395D01*
X632378Y36406D01*
X632497Y36410D01*
X632536Y36421D01*
X632576Y36425D01*
X632689Y36465D01*
X632803Y36498D01*
X632837Y36519D01*
X632876Y36532D01*
X632974Y36599D01*
X633077Y36660D01*
X633122Y36700D01*
X633139Y36711D01*
X633152Y36726D01*
X633197Y36766D01*
X638214Y41783D01*
X651786Y41783D01*
X661383Y32186D01*
X661383Y18614D01*
X656366Y13598D01*
X656281Y13488D01*
X656192Y13381D01*
X656184Y13362D01*
X656171Y13346D01*
X656116Y13218D01*
X656057Y13093D01*
X656053Y13073D01*
X656045Y13054D01*
X656023Y12916D01*
X655997Y12781D01*
X655998Y12760D01*
X655995Y12740D01*
X656008Y12601D01*
X656017Y12463D01*
X656023Y12444D01*
X656025Y12424D01*
X656072Y12292D01*
X656115Y12161D01*
X656126Y12143D01*
X656132Y12124D01*
X656211Y12009D01*
X656285Y11892D01*
X656300Y11878D01*
X656311Y11861D01*
X656415Y11769D01*
X656517Y11674D01*
X656534Y11664D01*
X656549Y11651D01*
X656674Y11587D01*
X656795Y11520D01*
X656815Y11515D01*
X656833Y11506D01*
X656969Y11476D01*
X657103Y11441D01*
X657131Y11439D01*
X657143Y11437D01*
X657163Y11437D01*
X657264Y11431D01*
X690730Y11431D01*
X690848Y11446D01*
X690967Y11453D01*
X691005Y11466D01*
X691046Y11471D01*
X691156Y11514D01*
X691269Y11551D01*
X691304Y11573D01*
X691341Y11588D01*
X691437Y11658D01*
X691538Y11721D01*
X691566Y11751D01*
X691599Y11774D01*
X691675Y11866D01*
X691756Y11953D01*
X691776Y11988D01*
X691801Y12019D01*
X691852Y12127D01*
X691910Y12231D01*
X691920Y12271D01*
X691937Y12307D01*
X691959Y12424D01*
X691989Y12539D01*
X691993Y12600D01*
X691997Y12620D01*
X691995Y12640D01*
X691999Y12700D01*
X691999Y59072D01*
X691982Y59209D01*
X691969Y59348D01*
X691962Y59367D01*
X691959Y59387D01*
X691908Y59516D01*
X691861Y59647D01*
X691850Y59664D01*
X691842Y59683D01*
X691761Y59795D01*
X691683Y59910D01*
X691667Y59924D01*
X691656Y59940D01*
X691548Y60029D01*
X691444Y60121D01*
X691426Y60130D01*
X691411Y60143D01*
X691285Y60202D01*
X691161Y60265D01*
X691141Y60270D01*
X691123Y60278D01*
X690987Y60305D01*
X690851Y60335D01*
X690830Y60334D01*
X690811Y60338D01*
X690672Y60330D01*
X690533Y60325D01*
X690513Y60320D01*
X690493Y60318D01*
X690361Y60276D01*
X690227Y60237D01*
X690210Y60227D01*
X690191Y60220D01*
X690073Y60146D01*
X689953Y60075D01*
X689932Y60057D01*
X689922Y60050D01*
X689908Y60035D01*
X689833Y59969D01*
X685658Y55794D01*
X679843Y52437D01*
X673357Y50699D01*
X666643Y50699D01*
X660157Y52437D01*
X654342Y55794D01*
X649594Y60542D01*
X646237Y66357D01*
X644499Y72843D01*
X644499Y79557D01*
X646237Y86043D01*
X649594Y91858D01*
X654342Y96606D01*
X660157Y99963D01*
X666643Y101701D01*
X673357Y101701D01*
X679843Y99963D01*
X685658Y96606D01*
X689833Y92431D01*
X689942Y92346D01*
X690049Y92257D01*
X690068Y92248D01*
X690084Y92236D01*
X690212Y92181D01*
X690337Y92122D01*
X690357Y92118D01*
X690376Y92110D01*
X690514Y92088D01*
X690650Y92062D01*
X690670Y92063D01*
X690690Y92060D01*
X690829Y92073D01*
X690967Y92082D01*
X690986Y92088D01*
X691006Y92090D01*
X691138Y92137D01*
X691269Y92180D01*
X691287Y92190D01*
X691306Y92197D01*
X691421Y92275D01*
X691538Y92350D01*
X691552Y92364D01*
X691569Y92376D01*
X691661Y92480D01*
X691756Y92581D01*
X691766Y92599D01*
X691779Y92614D01*
X691843Y92738D01*
X691910Y92860D01*
X691915Y92879D01*
X691924Y92897D01*
X691954Y93033D01*
X691989Y93168D01*
X691991Y93196D01*
X691994Y93208D01*
X691993Y93228D01*
X691999Y93328D01*
X691999Y338472D01*
X691982Y338609D01*
X691969Y338748D01*
X691962Y338767D01*
X691959Y338787D01*
X691908Y338916D01*
X691861Y339047D01*
X691850Y339064D01*
X691842Y339083D01*
X691761Y339195D01*
X691683Y339310D01*
X691667Y339324D01*
X691656Y339340D01*
X691548Y339429D01*
X691444Y339521D01*
X691426Y339530D01*
X691411Y339543D01*
X691285Y339602D01*
X691161Y339665D01*
X691141Y339670D01*
X691123Y339678D01*
X690987Y339705D01*
X690851Y339735D01*
X690830Y339734D01*
X690811Y339738D01*
X690672Y339730D01*
X690533Y339725D01*
X690513Y339720D01*
X690493Y339718D01*
X690361Y339676D01*
X690227Y339637D01*
X690210Y339627D01*
X690191Y339620D01*
X690073Y339546D01*
X689953Y339475D01*
X689932Y339457D01*
X689922Y339450D01*
X689908Y339435D01*
X689833Y339369D01*
X685658Y335194D01*
X679843Y331837D01*
X673357Y330099D01*
X666643Y330099D01*
X660157Y331837D01*
X654342Y335194D01*
X649594Y339942D01*
X646237Y345757D01*
X644499Y352243D01*
X644499Y358957D01*
X646237Y365443D01*
X649594Y371258D01*
X654342Y376006D01*
X660157Y379363D01*
X666643Y381101D01*
X673357Y381101D01*
X679843Y379363D01*
X685658Y376006D01*
X689833Y371831D01*
X689942Y371746D01*
X690049Y371657D01*
X690068Y371648D01*
X690084Y371636D01*
X690212Y371581D01*
X690337Y371522D01*
X690357Y371518D01*
X690376Y371510D01*
X690514Y371488D01*
X690650Y371462D01*
X690670Y371463D01*
X690690Y371460D01*
X690829Y371473D01*
X690967Y371482D01*
X690986Y371488D01*
X691006Y371490D01*
X691138Y371537D01*
X691269Y371580D01*
X691287Y371590D01*
X691306Y371597D01*
X691421Y371675D01*
X691538Y371750D01*
X691552Y371764D01*
X691569Y371776D01*
X691661Y371880D01*
X691756Y371981D01*
X691766Y371999D01*
X691779Y372014D01*
X691843Y372138D01*
X691910Y372260D01*
X691915Y372279D01*
X691924Y372297D01*
X691954Y372433D01*
X691989Y372568D01*
X691991Y372596D01*
X691994Y372608D01*
X691993Y372628D01*
X691999Y372728D01*
X691999Y526730D01*
X691984Y526848D01*
X691977Y526967D01*
X691964Y527005D01*
X691959Y527046D01*
X691916Y527156D01*
X691879Y527269D01*
X691857Y527304D01*
X691842Y527341D01*
X691773Y527437D01*
X691709Y527538D01*
X691679Y527566D01*
X691656Y527599D01*
X691564Y527675D01*
X691477Y527756D01*
X691442Y527776D01*
X691411Y527801D01*
X691303Y527852D01*
X691199Y527910D01*
X691159Y527920D01*
X691123Y527937D01*
X691006Y527959D01*
X690891Y527989D01*
X690831Y527993D01*
X690811Y527997D01*
X690790Y527995D01*
X690730Y527999D01*
X181128Y527999D01*
X180991Y527982D01*
X180852Y527969D01*
X180833Y527962D01*
X180813Y527959D01*
X180684Y527908D01*
X180553Y527861D01*
X180536Y527850D01*
X180517Y527842D01*
X180405Y527761D01*
X180290Y527683D01*
X180276Y527667D01*
X180260Y527656D01*
X180171Y527548D01*
X180079Y527444D01*
X180070Y527426D01*
X180057Y527411D01*
X179998Y527285D01*
X179935Y527161D01*
X179930Y527141D01*
X179922Y527123D01*
X179895Y526987D01*
X179865Y526851D01*
X179866Y526830D01*
X179862Y526811D01*
X179870Y526672D01*
X179875Y526533D01*
X179880Y526513D01*
X179882Y526493D01*
X179924Y526361D01*
X179963Y526227D01*
X179973Y526210D01*
X179980Y526191D01*
X180054Y526072D01*
X180125Y525953D01*
X180143Y525932D01*
X180150Y525922D01*
X180165Y525908D01*
X180231Y525833D01*
X182406Y523658D01*
X184523Y519991D01*
X184599Y519891D01*
X184669Y519787D01*
X184695Y519764D01*
X184715Y519738D01*
X184813Y519660D01*
X184908Y519576D01*
X184938Y519561D01*
X184964Y519540D01*
X185079Y519489D01*
X185191Y519432D01*
X185224Y519424D01*
X185255Y519411D01*
X185379Y519390D01*
X185501Y519362D01*
X185535Y519363D01*
X185568Y519357D01*
X185694Y519368D01*
X185819Y519372D01*
X185852Y519381D01*
X185885Y519384D01*
X186004Y519425D01*
X186125Y519460D01*
X186154Y519477D01*
X186186Y519488D01*
X186291Y519558D01*
X186399Y519622D01*
X186435Y519654D01*
X186451Y519664D01*
X186465Y519680D01*
X186519Y519728D01*
X191174Y524383D01*
X204746Y524383D01*
X209763Y519366D01*
X209857Y519293D01*
X209946Y519214D01*
X209982Y519196D01*
X210014Y519171D01*
X210123Y519124D01*
X210229Y519070D01*
X210268Y519061D01*
X210306Y519045D01*
X210423Y519026D01*
X210539Y519000D01*
X210580Y519001D01*
X210620Y518995D01*
X210738Y519006D01*
X210857Y519010D01*
X210896Y519021D01*
X210936Y519025D01*
X211049Y519065D01*
X211163Y519098D01*
X211198Y519119D01*
X211236Y519132D01*
X211334Y519199D01*
X211437Y519260D01*
X211482Y519300D01*
X211499Y519311D01*
X211512Y519326D01*
X211558Y519366D01*
X216574Y524383D01*
X230146Y524383D01*
X235162Y519366D01*
X235257Y519293D01*
X235346Y519214D01*
X235382Y519196D01*
X235414Y519171D01*
X235523Y519124D01*
X235629Y519070D01*
X235668Y519061D01*
X235706Y519045D01*
X235823Y519026D01*
X235939Y519000D01*
X235980Y519001D01*
X236020Y518995D01*
X236138Y519006D01*
X236257Y519010D01*
X236296Y519021D01*
X236336Y519025D01*
X236449Y519065D01*
X236563Y519098D01*
X236597Y519119D01*
X236636Y519132D01*
X236734Y519199D01*
X236837Y519260D01*
X236882Y519300D01*
X236899Y519311D01*
X236912Y519326D01*
X236957Y519366D01*
X241974Y524383D01*
X255546Y524383D01*
X264423Y515505D01*
X264517Y515432D01*
X264607Y515354D01*
X264643Y515335D01*
X264675Y515310D01*
X264784Y515263D01*
X264890Y515209D01*
X264929Y515200D01*
X264966Y515184D01*
X265084Y515165D01*
X265200Y515139D01*
X265240Y515141D01*
X265281Y515134D01*
X265399Y515145D01*
X265518Y515149D01*
X265557Y515160D01*
X265597Y515164D01*
X265709Y515204D01*
X265824Y515237D01*
X265858Y515258D01*
X265896Y515272D01*
X265995Y515339D01*
X266097Y515399D01*
X266143Y515439D01*
X266160Y515450D01*
X266173Y515466D01*
X266218Y515505D01*
X269636Y518923D01*
X271661Y518923D01*
X271661Y509230D01*
X271676Y509112D01*
X271683Y508993D01*
X271695Y508955D01*
X271701Y508915D01*
X271744Y508804D01*
X271781Y508691D01*
X271803Y508657D01*
X271818Y508619D01*
X271887Y508523D01*
X271951Y508422D01*
X271981Y508394D01*
X272004Y508362D01*
X272096Y508286D01*
X272183Y508204D01*
X272218Y508185D01*
X272249Y508159D01*
X272357Y508108D01*
X272461Y508051D01*
X272501Y508041D01*
X272537Y508023D01*
X272644Y508003D01*
X272614Y507999D01*
X272504Y507955D01*
X272391Y507919D01*
X272356Y507897D01*
X272319Y507882D01*
X272222Y507812D01*
X272122Y507749D01*
X272094Y507719D01*
X272061Y507695D01*
X271985Y507604D01*
X271904Y507517D01*
X271884Y507482D01*
X271859Y507450D01*
X271808Y507343D01*
X271750Y507238D01*
X271740Y507199D01*
X271723Y507163D01*
X271701Y507046D01*
X271671Y506930D01*
X271667Y506870D01*
X271663Y506850D01*
X271665Y506830D01*
X271661Y506770D01*
X271661Y497077D01*
X269636Y497077D01*
X266218Y500495D01*
X266124Y500568D01*
X266035Y500646D01*
X265999Y500665D01*
X265967Y500690D01*
X265858Y500737D01*
X265752Y500791D01*
X265712Y500800D01*
X265675Y500816D01*
X265557Y500835D01*
X265441Y500861D01*
X265401Y500859D01*
X265361Y500866D01*
X265242Y500855D01*
X265124Y500851D01*
X265085Y500840D01*
X265044Y500836D01*
X264932Y500796D01*
X264818Y500763D01*
X264783Y500742D01*
X264745Y500728D01*
X264646Y500661D01*
X264544Y500601D01*
X264499Y500561D01*
X264482Y500550D01*
X264469Y500534D01*
X264423Y500495D01*
X255546Y491617D01*
X241974Y491617D01*
X236957Y496634D01*
X236863Y496707D01*
X236774Y496786D01*
X236738Y496804D01*
X236706Y496829D01*
X236597Y496876D01*
X236491Y496930D01*
X236452Y496939D01*
X236414Y496955D01*
X236297Y496974D01*
X236181Y497000D01*
X236140Y496999D01*
X236100Y497005D01*
X235982Y496994D01*
X235863Y496990D01*
X235824Y496979D01*
X235784Y496975D01*
X235671Y496935D01*
X235557Y496902D01*
X235522Y496881D01*
X235484Y496868D01*
X235386Y496801D01*
X235283Y496740D01*
X235238Y496700D01*
X235221Y496689D01*
X235208Y496674D01*
X235162Y496634D01*
X230146Y491617D01*
X216574Y491617D01*
X211558Y496634D01*
X211463Y496707D01*
X211374Y496786D01*
X211338Y496804D01*
X211306Y496829D01*
X211197Y496876D01*
X211091Y496930D01*
X211052Y496939D01*
X211014Y496955D01*
X210897Y496974D01*
X210781Y497000D01*
X210740Y496999D01*
X210700Y497005D01*
X210582Y496994D01*
X210463Y496990D01*
X210424Y496979D01*
X210384Y496975D01*
X210271Y496935D01*
X210157Y496902D01*
X210123Y496881D01*
X210084Y496868D01*
X209986Y496801D01*
X209883Y496740D01*
X209838Y496700D01*
X209821Y496689D01*
X209808Y496674D01*
X209763Y496634D01*
X204746Y491617D01*
X200243Y491617D01*
X200213Y491614D01*
X200184Y491616D01*
X200056Y491594D01*
X199927Y491577D01*
X199900Y491567D01*
X199871Y491562D01*
X199752Y491508D01*
X199631Y491460D01*
X199608Y491443D01*
X199581Y491431D01*
X199479Y491350D01*
X199374Y491274D01*
X199355Y491251D01*
X199332Y491232D01*
X199254Y491129D01*
X199171Y491029D01*
X199159Y491002D01*
X199141Y490978D01*
X199070Y490834D01*
X198792Y490163D01*
X179837Y471208D01*
X175403Y469371D01*
X148597Y469371D01*
X148473Y469423D01*
X148464Y469425D01*
X148456Y469430D01*
X148311Y469467D01*
X148166Y469507D01*
X148157Y469507D01*
X148148Y469509D01*
X147987Y469519D01*
X139107Y469519D01*
X139009Y469507D01*
X138910Y469504D01*
X138852Y469487D01*
X138792Y469479D01*
X138700Y469443D01*
X138604Y469415D01*
X138552Y469385D01*
X138496Y469362D01*
X138416Y469304D01*
X138330Y469254D01*
X138255Y469188D01*
X138239Y469176D01*
X138231Y469166D01*
X138210Y469148D01*
X114436Y445374D01*
X114376Y445296D01*
X114308Y445224D01*
X114279Y445171D01*
X114242Y445123D01*
X114202Y445032D01*
X114154Y444945D01*
X114139Y444887D01*
X114115Y444831D01*
X114100Y444733D01*
X114075Y444638D01*
X114069Y444538D01*
X114065Y444517D01*
X114067Y444505D01*
X114065Y444477D01*
X114065Y443100D01*
X112228Y438666D01*
X108834Y435272D01*
X104400Y433435D01*
X99600Y433435D01*
X95166Y435272D01*
X91772Y438666D01*
X89935Y443100D01*
X89935Y452400D01*
X91772Y456834D01*
X126750Y491812D01*
X131184Y493649D01*
X138642Y493649D01*
X138773Y493665D01*
X138905Y493676D01*
X138930Y493685D01*
X138957Y493689D01*
X139080Y493737D01*
X139205Y493781D01*
X139228Y493796D01*
X139253Y493806D01*
X139360Y493883D01*
X139470Y493957D01*
X139488Y493977D01*
X139510Y493992D01*
X139595Y494095D01*
X139683Y494193D01*
X139696Y494217D01*
X139713Y494237D01*
X139769Y494357D01*
X139831Y494474D01*
X139837Y494501D01*
X139849Y494525D01*
X139873Y494655D01*
X139904Y494784D01*
X139903Y494811D01*
X139908Y494837D01*
X139900Y494969D01*
X139897Y495102D01*
X139890Y495128D01*
X139889Y495155D01*
X139848Y495281D01*
X139812Y495408D01*
X139795Y495443D01*
X139791Y495457D01*
X139779Y495476D01*
X139741Y495553D01*
X138237Y498157D01*
X136499Y504643D01*
X136499Y511357D01*
X138237Y517843D01*
X141594Y523658D01*
X143769Y525833D01*
X143854Y525942D01*
X143943Y526049D01*
X143952Y526068D01*
X143964Y526084D01*
X144019Y526212D01*
X144078Y526337D01*
X144082Y526357D01*
X144090Y526376D01*
X144112Y526514D01*
X144138Y526650D01*
X144137Y526670D01*
X144140Y526690D01*
X144127Y526829D01*
X144118Y526967D01*
X144112Y526986D01*
X144110Y527006D01*
X144063Y527138D01*
X144020Y527269D01*
X144010Y527287D01*
X144003Y527306D01*
X143925Y527421D01*
X143850Y527538D01*
X143836Y527552D01*
X143824Y527569D01*
X143720Y527661D01*
X143619Y527756D01*
X143601Y527766D01*
X143586Y527779D01*
X143462Y527843D01*
X143340Y527910D01*
X143321Y527915D01*
X143303Y527924D01*
X143167Y527954D01*
X143032Y527989D01*
X143004Y527991D01*
X142992Y527994D01*
X142972Y527993D01*
X142872Y527999D01*
X48374Y527999D01*
X48304Y527991D01*
X48235Y527992D01*
X48147Y527971D01*
X48058Y527959D01*
X47993Y527934D01*
X47925Y527917D01*
X47846Y527875D01*
X47763Y527842D01*
X47706Y527801D01*
X47644Y527769D01*
X47578Y527708D01*
X47505Y527656D01*
X47461Y527602D01*
X47409Y527555D01*
X47360Y527480D01*
X47302Y527411D01*
X47273Y527347D01*
X47234Y527289D01*
X47205Y527204D01*
X47167Y527123D01*
X47154Y527054D01*
X47131Y526988D01*
X47124Y526899D01*
X47107Y526811D01*
X47111Y526741D01*
X47106Y526671D01*
X47121Y526583D01*
X47127Y526493D01*
X47148Y526427D01*
X47160Y526358D01*
X47197Y526276D01*
X47225Y526191D01*
X47262Y526132D01*
X47291Y526068D01*
X47347Y525998D01*
X47395Y525922D01*
X47446Y525874D01*
X47490Y525819D01*
X47561Y525765D01*
X47627Y525704D01*
X47688Y525670D01*
X47744Y525628D01*
X47888Y525557D01*
X48029Y525499D01*
X54499Y519029D01*
X58001Y510575D01*
X58001Y501425D01*
X54499Y492971D01*
X48029Y486501D01*
X39575Y482999D01*
X30425Y482999D01*
X21971Y486501D01*
X15501Y492971D01*
X13632Y497483D01*
X13597Y497545D01*
X13570Y497611D01*
X13518Y497683D01*
X13474Y497759D01*
X13425Y497811D01*
X13383Y497868D01*
X13315Y497924D01*
X13253Y497988D01*
X13192Y498025D01*
X13137Y498070D01*
X13057Y498108D01*
X12982Y498154D01*
X12914Y498175D01*
X12849Y498205D01*
X12763Y498222D01*
X12678Y498248D01*
X12607Y498251D01*
X12537Y498264D01*
X12449Y498259D01*
X12360Y498263D01*
X12291Y498248D01*
X12220Y498244D01*
X12136Y498216D01*
X12049Y498199D01*
X11985Y498167D01*
X11917Y498145D01*
X11843Y498098D01*
X11763Y498059D01*
X11709Y498013D01*
X11649Y497974D01*
X11589Y497910D01*
X11521Y497853D01*
X11480Y497794D01*
X11432Y497742D01*
X11389Y497665D01*
X11338Y497592D01*
X11313Y497526D01*
X11279Y497463D01*
X11257Y497378D01*
X11225Y497295D01*
X11218Y497224D01*
X11200Y497155D01*
X11190Y496995D01*
X11700Y275730D01*
X11709Y275662D01*
X11707Y275594D01*
X11729Y275505D01*
X11740Y275415D01*
X11766Y275351D01*
X11782Y275285D01*
X11824Y275204D01*
X11858Y275119D01*
X11898Y275064D01*
X11930Y275004D01*
X11992Y274936D01*
X12046Y274862D01*
X12098Y274819D01*
X12144Y274768D01*
X12220Y274718D01*
X12291Y274660D01*
X12353Y274631D01*
X12410Y274594D01*
X12496Y274564D01*
X12579Y274525D01*
X12646Y274513D01*
X12711Y274490D01*
X12802Y274483D01*
X12891Y274466D01*
X12960Y274471D01*
X13028Y274465D01*
X13118Y274481D01*
X13209Y274487D01*
X13274Y274508D01*
X13341Y274520D01*
X13424Y274557D01*
X13511Y274585D01*
X13569Y274622D01*
X13631Y274650D01*
X13702Y274707D01*
X13779Y274756D01*
X13826Y274806D01*
X13880Y274849D01*
X13934Y274922D01*
X13997Y274988D01*
X14030Y275048D01*
X14071Y275103D01*
X14142Y275247D01*
X15501Y278529D01*
X21971Y284999D01*
X30425Y288501D01*
X39575Y288501D01*
X48029Y284999D01*
X54499Y278529D01*
X58001Y270075D01*
X58001Y260925D01*
X54499Y252471D01*
X48029Y246001D01*
X39575Y242499D01*
X30425Y242499D01*
X21971Y246001D01*
X15501Y252471D01*
X14189Y255638D01*
X14180Y255654D01*
X14176Y255666D01*
X14152Y255703D01*
X14127Y255766D01*
X14075Y255838D01*
X14032Y255914D01*
X13982Y255966D01*
X13940Y256023D01*
X13872Y256079D01*
X13810Y256143D01*
X13749Y256180D01*
X13695Y256225D01*
X13615Y256263D01*
X13539Y256309D01*
X13471Y256330D01*
X13407Y256360D01*
X13320Y256377D01*
X13235Y256403D01*
X13164Y256406D01*
X13094Y256419D01*
X13006Y256414D01*
X12918Y256418D01*
X12848Y256403D01*
X12777Y256399D01*
X12693Y256371D01*
X12606Y256354D01*
X12542Y256322D01*
X12474Y256300D01*
X12400Y256253D01*
X12320Y256214D01*
X12266Y256168D01*
X12206Y256129D01*
X12146Y256065D01*
X12078Y256007D01*
X12037Y255949D01*
X11989Y255897D01*
X11946Y255820D01*
X11895Y255747D01*
X11870Y255681D01*
X11836Y255618D01*
X11814Y255533D01*
X11783Y255450D01*
X11775Y255379D01*
X11757Y255310D01*
X11751Y255214D01*
X11750Y255207D01*
X11750Y255200D01*
X11747Y255149D01*
X12262Y31514D01*
X12280Y31377D01*
X12293Y31241D01*
X12300Y31220D01*
X12303Y31199D01*
X12354Y31071D01*
X12400Y30941D01*
X12413Y30923D01*
X12421Y30903D01*
X12502Y30792D01*
X12579Y30678D01*
X12595Y30664D01*
X12608Y30646D01*
X12714Y30559D01*
X12817Y30468D01*
X12837Y30458D01*
X12854Y30444D01*
X12978Y30386D01*
X13101Y30323D01*
X13122Y30318D01*
X13142Y30309D01*
X13277Y30284D01*
X13411Y30253D01*
X13433Y30254D01*
X13454Y30250D01*
X13591Y30259D01*
X13729Y30263D01*
X13750Y30269D01*
X13771Y30271D01*
X13902Y30313D01*
X14034Y30352D01*
X14053Y30363D01*
X14074Y30369D01*
X14190Y30443D01*
X14308Y30513D01*
X14331Y30533D01*
X14342Y30540D01*
X14356Y30555D01*
X14429Y30619D01*
X15166Y31357D01*
X19301Y33069D01*
X23777Y33069D01*
X27912Y31357D01*
X31077Y28192D01*
X32790Y24057D01*
X32790Y19581D01*
X31077Y15446D01*
X29229Y13598D01*
X29144Y13488D01*
X29055Y13381D01*
X29047Y13362D01*
X29034Y13346D01*
X28979Y13218D01*
X28920Y13093D01*
X28916Y13073D01*
X28908Y13054D01*
X28886Y12916D01*
X28860Y12781D01*
X28861Y12760D01*
X28858Y12740D01*
X28871Y12601D01*
X28880Y12463D01*
X28886Y12444D01*
X28888Y12424D01*
X28935Y12292D01*
X28978Y12161D01*
X28988Y12143D01*
X28995Y12124D01*
X29073Y12009D01*
X29148Y11892D01*
X29163Y11878D01*
X29174Y11861D01*
X29278Y11769D01*
X29379Y11674D01*
X29397Y11664D01*
X29412Y11651D01*
X29536Y11587D01*
X29658Y11520D01*
X29677Y11515D01*
X29696Y11506D01*
X29831Y11476D01*
X29966Y11441D01*
X29994Y11439D01*
X30006Y11437D01*
X30026Y11437D01*
X30127Y11431D01*
X126421Y11431D01*
X126552Y11447D01*
G37*
G36*
X523078Y112149D02*
X523078Y112149D01*
X523197Y112152D01*
X523236Y112163D01*
X523276Y112167D01*
X523389Y112208D01*
X523503Y112241D01*
X523537Y112261D01*
X523576Y112275D01*
X523674Y112342D01*
X523777Y112402D01*
X523822Y112442D01*
X523839Y112453D01*
X523852Y112469D01*
X523897Y112509D01*
X526852Y115463D01*
X527158Y115589D01*
X527166Y115594D01*
X527175Y115597D01*
X527278Y115658D01*
X527300Y115666D01*
X527327Y115686D01*
X527434Y115747D01*
X527441Y115753D01*
X527449Y115758D01*
X527553Y115850D01*
X527557Y115853D01*
X527559Y115855D01*
X527570Y115865D01*
X574271Y162566D01*
X579545Y164751D01*
X612230Y164751D01*
X612348Y164766D01*
X612467Y164773D01*
X612505Y164786D01*
X612546Y164791D01*
X612656Y164834D01*
X612769Y164871D01*
X612804Y164893D01*
X612841Y164908D01*
X612937Y164977D01*
X613038Y165041D01*
X613066Y165071D01*
X613099Y165094D01*
X613175Y165186D01*
X613256Y165273D01*
X613276Y165308D01*
X613301Y165339D01*
X613352Y165447D01*
X613410Y165551D01*
X613420Y165591D01*
X613437Y165627D01*
X613459Y165744D01*
X613489Y165859D01*
X613493Y165919D01*
X613497Y165939D01*
X613495Y165960D01*
X613499Y166020D01*
X613499Y167090D01*
X613484Y167208D01*
X613477Y167327D01*
X613464Y167365D01*
X613459Y167406D01*
X613416Y167516D01*
X613379Y167629D01*
X613357Y167664D01*
X613342Y167701D01*
X613273Y167797D01*
X613209Y167898D01*
X613179Y167926D01*
X613156Y167959D01*
X613064Y168035D01*
X612977Y168116D01*
X612942Y168136D01*
X612911Y168161D01*
X612803Y168212D01*
X612699Y168270D01*
X612659Y168280D01*
X612623Y168297D01*
X612506Y168319D01*
X612391Y168349D01*
X612331Y168353D01*
X612311Y168357D01*
X612290Y168355D01*
X612230Y168359D01*
X604749Y168359D01*
X604749Y172651D01*
X612230Y172651D01*
X612348Y172666D01*
X612467Y172673D01*
X612505Y172685D01*
X612546Y172691D01*
X612656Y172734D01*
X612769Y172771D01*
X612804Y172793D01*
X612841Y172808D01*
X612937Y172877D01*
X613038Y172941D01*
X613066Y172971D01*
X613099Y172994D01*
X613175Y173086D01*
X613256Y173173D01*
X613276Y173208D01*
X613301Y173239D01*
X613352Y173347D01*
X613410Y173451D01*
X613420Y173491D01*
X613437Y173527D01*
X613459Y173644D01*
X613489Y173759D01*
X613493Y173819D01*
X613497Y173839D01*
X613495Y173860D01*
X613499Y173920D01*
X613499Y174880D01*
X613484Y174998D01*
X613477Y175117D01*
X613464Y175155D01*
X613459Y175196D01*
X613416Y175306D01*
X613379Y175419D01*
X613357Y175454D01*
X613342Y175491D01*
X613273Y175587D01*
X613209Y175688D01*
X613179Y175716D01*
X613156Y175749D01*
X613064Y175825D01*
X612977Y175906D01*
X612942Y175926D01*
X612911Y175951D01*
X612803Y176002D01*
X612699Y176060D01*
X612659Y176070D01*
X612623Y176087D01*
X612506Y176109D01*
X612391Y176139D01*
X612331Y176143D01*
X612311Y176147D01*
X612290Y176145D01*
X612230Y176149D01*
X604749Y176149D01*
X604749Y180441D01*
X612230Y180441D01*
X612348Y180456D01*
X612467Y180463D01*
X612505Y180476D01*
X612546Y180481D01*
X612656Y180524D01*
X612769Y180561D01*
X612804Y180583D01*
X612841Y180598D01*
X612937Y180667D01*
X613038Y180731D01*
X613066Y180761D01*
X613099Y180784D01*
X613175Y180876D01*
X613256Y180963D01*
X613276Y180998D01*
X613301Y181029D01*
X613352Y181137D01*
X613410Y181241D01*
X613420Y181281D01*
X613437Y181317D01*
X613459Y181434D01*
X613489Y181549D01*
X613493Y181609D01*
X613497Y181629D01*
X613495Y181650D01*
X613499Y181710D01*
X613499Y282503D01*
X613487Y282602D01*
X613484Y282701D01*
X613467Y282759D01*
X613459Y282819D01*
X613423Y282911D01*
X613395Y283006D01*
X613365Y283058D01*
X613342Y283115D01*
X613284Y283195D01*
X613234Y283280D01*
X613168Y283355D01*
X613156Y283372D01*
X613146Y283380D01*
X613128Y283401D01*
X576667Y319861D01*
X576558Y319946D01*
X576451Y320035D01*
X576432Y320043D01*
X576416Y320056D01*
X576288Y320111D01*
X576163Y320170D01*
X576143Y320174D01*
X576124Y320182D01*
X575986Y320204D01*
X575850Y320230D01*
X575830Y320229D01*
X575810Y320232D01*
X575671Y320219D01*
X575533Y320210D01*
X575514Y320204D01*
X575494Y320202D01*
X575362Y320155D01*
X575231Y320112D01*
X575213Y320102D01*
X575194Y320095D01*
X575079Y320017D01*
X574962Y319942D01*
X574948Y319927D01*
X574931Y319916D01*
X574839Y319812D01*
X574744Y319711D01*
X574734Y319693D01*
X574721Y319678D01*
X574657Y319554D01*
X574590Y319432D01*
X574585Y319412D01*
X574576Y319394D01*
X574546Y319259D01*
X574511Y319124D01*
X574509Y319096D01*
X574506Y319084D01*
X574507Y319064D01*
X574501Y318963D01*
X574501Y303613D01*
X572674Y299202D01*
X564798Y291326D01*
X564384Y291155D01*
X564359Y291140D01*
X564331Y291131D01*
X564221Y291062D01*
X564108Y290997D01*
X564087Y290977D01*
X564062Y290961D01*
X563973Y290866D01*
X563880Y290776D01*
X563864Y290751D01*
X563844Y290729D01*
X563781Y290616D01*
X563713Y290505D01*
X563705Y290477D01*
X563690Y290451D01*
X563658Y290325D01*
X563620Y290201D01*
X563618Y290172D01*
X563611Y290143D01*
X563601Y289982D01*
X563601Y286115D01*
X561469Y280969D01*
X557598Y277098D01*
X557524Y277003D01*
X557446Y276914D01*
X557427Y276878D01*
X557403Y276846D01*
X557355Y276737D01*
X557301Y276631D01*
X557292Y276592D01*
X557276Y276554D01*
X557258Y276437D01*
X557232Y276321D01*
X557233Y276280D01*
X557226Y276240D01*
X557238Y276122D01*
X557241Y276003D01*
X557252Y275964D01*
X557256Y275924D01*
X557297Y275811D01*
X557330Y275697D01*
X557350Y275663D01*
X557364Y275624D01*
X557431Y275526D01*
X557491Y275423D01*
X557531Y275378D01*
X557542Y275361D01*
X557558Y275348D01*
X557598Y275303D01*
X561469Y271431D01*
X563601Y266285D01*
X563601Y260715D01*
X561469Y255569D01*
X557598Y251698D01*
X557524Y251603D01*
X557446Y251514D01*
X557427Y251478D01*
X557403Y251446D01*
X557355Y251337D01*
X557301Y251231D01*
X557292Y251192D01*
X557276Y251154D01*
X557258Y251037D01*
X557232Y250921D01*
X557233Y250880D01*
X557226Y250840D01*
X557238Y250722D01*
X557241Y250603D01*
X557252Y250564D01*
X557256Y250524D01*
X557297Y250411D01*
X557330Y250297D01*
X557350Y250263D01*
X557364Y250224D01*
X557431Y250126D01*
X557491Y250023D01*
X557531Y249978D01*
X557542Y249961D01*
X557558Y249948D01*
X557598Y249903D01*
X561469Y246031D01*
X563601Y240885D01*
X563601Y235315D01*
X561469Y230169D01*
X557598Y226298D01*
X557524Y226203D01*
X557446Y226114D01*
X557427Y226078D01*
X557403Y226046D01*
X557355Y225937D01*
X557301Y225831D01*
X557292Y225792D01*
X557276Y225754D01*
X557258Y225637D01*
X557232Y225521D01*
X557233Y225480D01*
X557226Y225440D01*
X557238Y225322D01*
X557241Y225203D01*
X557252Y225164D01*
X557256Y225124D01*
X557297Y225011D01*
X557330Y224897D01*
X557350Y224863D01*
X557364Y224824D01*
X557431Y224726D01*
X557491Y224623D01*
X557531Y224578D01*
X557542Y224561D01*
X557558Y224548D01*
X557598Y224503D01*
X561469Y220631D01*
X563601Y215485D01*
X563601Y209915D01*
X561469Y204769D01*
X557598Y200898D01*
X557524Y200803D01*
X557446Y200714D01*
X557427Y200678D01*
X557403Y200646D01*
X557355Y200537D01*
X557301Y200431D01*
X557292Y200392D01*
X557276Y200354D01*
X557258Y200237D01*
X557232Y200121D01*
X557233Y200080D01*
X557226Y200040D01*
X557238Y199922D01*
X557241Y199803D01*
X557252Y199764D01*
X557256Y199724D01*
X557297Y199611D01*
X557330Y199497D01*
X557350Y199463D01*
X557364Y199424D01*
X557431Y199326D01*
X557491Y199223D01*
X557531Y199178D01*
X557542Y199161D01*
X557558Y199148D01*
X557598Y199103D01*
X561469Y195231D01*
X563601Y190085D01*
X563601Y184515D01*
X561469Y179369D01*
X557531Y175431D01*
X552385Y173299D01*
X534815Y173299D01*
X533956Y173655D01*
X533908Y173668D01*
X533863Y173690D01*
X533755Y173710D01*
X533649Y173739D01*
X533599Y173740D01*
X533550Y173749D01*
X533441Y173742D01*
X533331Y173744D01*
X533283Y173733D01*
X533233Y173730D01*
X533129Y173696D01*
X533022Y173670D01*
X532978Y173647D01*
X532931Y173632D01*
X532838Y173573D01*
X532741Y173521D01*
X532704Y173488D01*
X532662Y173461D01*
X532587Y173381D01*
X532505Y173307D01*
X532478Y173266D01*
X532444Y173230D01*
X532391Y173134D01*
X532331Y173042D01*
X532314Y172995D01*
X532290Y172951D01*
X532263Y172845D01*
X532227Y172741D01*
X532223Y172691D01*
X532211Y172643D01*
X532201Y172483D01*
X532201Y165815D01*
X530069Y160669D01*
X526131Y156731D01*
X520985Y154599D01*
X515415Y154599D01*
X510269Y156731D01*
X506331Y160669D01*
X504199Y165815D01*
X504199Y183385D01*
X506331Y188531D01*
X510269Y192469D01*
X515415Y194601D01*
X520985Y194601D01*
X523640Y193501D01*
X523755Y193469D01*
X523868Y193431D01*
X523908Y193428D01*
X523947Y193417D01*
X524066Y193415D01*
X524185Y193406D01*
X524225Y193412D01*
X524265Y193412D01*
X524381Y193440D01*
X524498Y193460D01*
X524535Y193477D01*
X524574Y193486D01*
X524680Y193542D01*
X524788Y193591D01*
X524820Y193616D01*
X524855Y193635D01*
X524944Y193715D01*
X525037Y193789D01*
X525061Y193821D01*
X525091Y193849D01*
X525156Y193948D01*
X525228Y194043D01*
X525254Y194097D01*
X525266Y194114D01*
X525272Y194134D01*
X525299Y194188D01*
X525731Y195231D01*
X529602Y199103D01*
X529676Y199197D01*
X529754Y199286D01*
X529773Y199322D01*
X529797Y199354D01*
X529845Y199463D01*
X529899Y199569D01*
X529908Y199608D01*
X529924Y199646D01*
X529942Y199763D01*
X529968Y199879D01*
X529967Y199920D01*
X529974Y199960D01*
X529962Y200078D01*
X529959Y200197D01*
X529948Y200236D01*
X529944Y200276D01*
X529903Y200389D01*
X529870Y200503D01*
X529850Y200538D01*
X529836Y200576D01*
X529769Y200674D01*
X529709Y200777D01*
X529669Y200822D01*
X529658Y200839D01*
X529642Y200852D01*
X529602Y200898D01*
X525731Y204769D01*
X523599Y209915D01*
X523599Y215485D01*
X525731Y220631D01*
X529602Y224503D01*
X529676Y224597D01*
X529754Y224686D01*
X529773Y224722D01*
X529797Y224754D01*
X529845Y224863D01*
X529899Y224969D01*
X529908Y225008D01*
X529924Y225046D01*
X529942Y225163D01*
X529968Y225279D01*
X529967Y225320D01*
X529974Y225360D01*
X529962Y225478D01*
X529959Y225597D01*
X529948Y225636D01*
X529944Y225676D01*
X529903Y225789D01*
X529870Y225903D01*
X529850Y225938D01*
X529836Y225976D01*
X529769Y226074D01*
X529709Y226177D01*
X529669Y226222D01*
X529658Y226239D01*
X529642Y226252D01*
X529602Y226298D01*
X525731Y230169D01*
X523599Y235315D01*
X523599Y240885D01*
X525731Y246031D01*
X529602Y249903D01*
X529676Y249997D01*
X529754Y250086D01*
X529773Y250122D01*
X529797Y250154D01*
X529845Y250263D01*
X529899Y250369D01*
X529908Y250408D01*
X529924Y250446D01*
X529942Y250563D01*
X529968Y250679D01*
X529967Y250720D01*
X529974Y250760D01*
X529962Y250878D01*
X529959Y250997D01*
X529948Y251036D01*
X529944Y251076D01*
X529903Y251189D01*
X529870Y251303D01*
X529850Y251338D01*
X529836Y251376D01*
X529769Y251474D01*
X529709Y251577D01*
X529669Y251622D01*
X529658Y251639D01*
X529642Y251652D01*
X529602Y251698D01*
X525731Y255569D01*
X523599Y260715D01*
X523599Y266285D01*
X525731Y271431D01*
X529602Y275303D01*
X529676Y275397D01*
X529754Y275486D01*
X529773Y275522D01*
X529797Y275554D01*
X529845Y275663D01*
X529899Y275769D01*
X529908Y275808D01*
X529924Y275846D01*
X529942Y275963D01*
X529968Y276079D01*
X529967Y276120D01*
X529974Y276160D01*
X529962Y276278D01*
X529959Y276397D01*
X529948Y276436D01*
X529944Y276476D01*
X529903Y276589D01*
X529870Y276703D01*
X529850Y276738D01*
X529836Y276776D01*
X529769Y276874D01*
X529709Y276977D01*
X529669Y277022D01*
X529658Y277039D01*
X529642Y277052D01*
X529602Y277098D01*
X527483Y279217D01*
X527389Y279290D01*
X527300Y279368D01*
X527264Y279387D01*
X527232Y279412D01*
X527123Y279459D01*
X527017Y279513D01*
X526977Y279522D01*
X526940Y279538D01*
X526822Y279557D01*
X526706Y279583D01*
X526666Y279581D01*
X526626Y279588D01*
X526507Y279577D01*
X526389Y279573D01*
X526350Y279562D01*
X526309Y279558D01*
X526197Y279518D01*
X526083Y279485D01*
X526048Y279464D01*
X526010Y279450D01*
X525912Y279384D01*
X525809Y279323D01*
X525764Y279283D01*
X525747Y279272D01*
X525734Y279257D01*
X525688Y279217D01*
X483798Y237326D01*
X479387Y235499D01*
X467770Y235499D01*
X467652Y235484D01*
X467533Y235477D01*
X467495Y235464D01*
X467454Y235459D01*
X467344Y235416D01*
X467231Y235379D01*
X467196Y235357D01*
X467159Y235342D01*
X467063Y235273D01*
X466962Y235209D01*
X466934Y235179D01*
X466901Y235156D01*
X466825Y235064D01*
X466744Y234977D01*
X466724Y234942D01*
X466699Y234911D01*
X466648Y234803D01*
X466590Y234699D01*
X466580Y234659D01*
X466563Y234623D01*
X466541Y234506D01*
X466511Y234391D01*
X466507Y234331D01*
X466503Y234311D01*
X466505Y234290D01*
X466501Y234230D01*
X466501Y209113D01*
X464674Y204702D01*
X461119Y201148D01*
X452083Y192112D01*
X452010Y192018D01*
X451932Y191928D01*
X451913Y191892D01*
X451888Y191860D01*
X451841Y191751D01*
X451787Y191645D01*
X451778Y191606D01*
X451762Y191569D01*
X451743Y191451D01*
X451717Y191335D01*
X451719Y191294D01*
X451712Y191254D01*
X451723Y191136D01*
X451727Y191017D01*
X451738Y190978D01*
X451742Y190938D01*
X451782Y190826D01*
X451815Y190711D01*
X451836Y190677D01*
X451850Y190639D01*
X451917Y190540D01*
X451977Y190438D01*
X452017Y190392D01*
X452028Y190375D01*
X452043Y190362D01*
X452083Y190317D01*
X453803Y188598D01*
X453897Y188524D01*
X453986Y188446D01*
X454022Y188427D01*
X454054Y188403D01*
X454163Y188355D01*
X454269Y188301D01*
X454309Y188292D01*
X454346Y188276D01*
X454463Y188258D01*
X454579Y188232D01*
X454620Y188233D01*
X454660Y188226D01*
X454778Y188238D01*
X454897Y188241D01*
X454936Y188252D01*
X454976Y188256D01*
X455089Y188297D01*
X455203Y188330D01*
X455238Y188350D01*
X455276Y188364D01*
X455374Y188431D01*
X455477Y188491D01*
X455522Y188531D01*
X455539Y188542D01*
X455552Y188558D01*
X455598Y188598D01*
X459469Y192469D01*
X464615Y194601D01*
X470185Y194601D01*
X475331Y192469D01*
X479269Y188531D01*
X481401Y183385D01*
X481401Y165815D01*
X479269Y160669D01*
X475331Y156731D01*
X472230Y155447D01*
X472187Y155422D01*
X472140Y155405D01*
X472049Y155343D01*
X471954Y155289D01*
X471918Y155254D01*
X471877Y155227D01*
X471804Y155144D01*
X471726Y155068D01*
X471700Y155025D01*
X471667Y154988D01*
X471617Y154890D01*
X471559Y154797D01*
X471545Y154749D01*
X471522Y154705D01*
X471498Y154598D01*
X471466Y154493D01*
X471463Y154443D01*
X471453Y154395D01*
X471456Y154285D01*
X471451Y154175D01*
X471461Y154126D01*
X471462Y154077D01*
X471493Y153971D01*
X471515Y153864D01*
X471537Y153819D01*
X471551Y153771D01*
X471606Y153676D01*
X471655Y153578D01*
X471687Y153540D01*
X471712Y153497D01*
X471819Y153376D01*
X506983Y118212D01*
X507061Y118152D01*
X507133Y118084D01*
X507186Y118055D01*
X507234Y118018D01*
X507325Y117978D01*
X507411Y117930D01*
X507470Y117915D01*
X507526Y117891D01*
X507624Y117876D01*
X507719Y117851D01*
X507819Y117845D01*
X507840Y117841D01*
X507852Y117843D01*
X507880Y117841D01*
X513407Y117841D01*
X519148Y115463D01*
X522102Y112509D01*
X522197Y112435D01*
X522286Y112357D01*
X522322Y112338D01*
X522354Y112314D01*
X522463Y112266D01*
X522569Y112212D01*
X522608Y112203D01*
X522646Y112187D01*
X522763Y112169D01*
X522879Y112143D01*
X522920Y112144D01*
X522960Y112137D01*
X523078Y112149D01*
G37*
%LPC*%
G36*
X460414Y491617D02*
X460414Y491617D01*
X450817Y501214D01*
X450817Y514786D01*
X460414Y524383D01*
X473986Y524383D01*
X479003Y519366D01*
X479097Y519293D01*
X479186Y519214D01*
X479222Y519196D01*
X479254Y519171D01*
X479363Y519124D01*
X479469Y519070D01*
X479508Y519061D01*
X479546Y519045D01*
X479663Y519026D01*
X479779Y519000D01*
X479820Y519001D01*
X479860Y518995D01*
X479978Y519006D01*
X480097Y519010D01*
X480136Y519021D01*
X480176Y519025D01*
X480289Y519065D01*
X480403Y519098D01*
X480438Y519119D01*
X480476Y519132D01*
X480574Y519199D01*
X480677Y519260D01*
X480722Y519300D01*
X480739Y519311D01*
X480752Y519326D01*
X480798Y519366D01*
X485814Y524383D01*
X499386Y524383D01*
X504403Y519366D01*
X504497Y519293D01*
X504586Y519214D01*
X504622Y519196D01*
X504654Y519171D01*
X504763Y519124D01*
X504869Y519070D01*
X504908Y519061D01*
X504946Y519045D01*
X505063Y519026D01*
X505179Y519000D01*
X505220Y519001D01*
X505260Y518995D01*
X505378Y519006D01*
X505497Y519010D01*
X505536Y519021D01*
X505576Y519025D01*
X505689Y519065D01*
X505803Y519098D01*
X505838Y519119D01*
X505876Y519132D01*
X505974Y519199D01*
X506077Y519260D01*
X506122Y519300D01*
X506139Y519311D01*
X506152Y519326D01*
X506198Y519366D01*
X511214Y524383D01*
X524786Y524383D01*
X529803Y519366D01*
X529897Y519293D01*
X529986Y519214D01*
X530022Y519196D01*
X530054Y519171D01*
X530163Y519124D01*
X530269Y519070D01*
X530308Y519061D01*
X530346Y519045D01*
X530463Y519026D01*
X530579Y519000D01*
X530620Y519001D01*
X530660Y518995D01*
X530778Y519006D01*
X530897Y519010D01*
X530936Y519021D01*
X530976Y519025D01*
X531089Y519065D01*
X531203Y519098D01*
X531238Y519119D01*
X531276Y519132D01*
X531374Y519199D01*
X531477Y519260D01*
X531522Y519300D01*
X531539Y519311D01*
X531552Y519326D01*
X531598Y519366D01*
X536614Y524383D01*
X550186Y524383D01*
X555202Y519366D01*
X555297Y519293D01*
X555386Y519214D01*
X555422Y519196D01*
X555454Y519171D01*
X555563Y519124D01*
X555669Y519070D01*
X555708Y519061D01*
X555746Y519045D01*
X555863Y519026D01*
X555979Y519000D01*
X556020Y519001D01*
X556060Y518995D01*
X556178Y519006D01*
X556297Y519010D01*
X556336Y519021D01*
X556376Y519025D01*
X556489Y519065D01*
X556603Y519098D01*
X556637Y519119D01*
X556676Y519132D01*
X556774Y519199D01*
X556877Y519260D01*
X556922Y519300D01*
X556939Y519311D01*
X556952Y519326D01*
X556997Y519366D01*
X562014Y524383D01*
X575586Y524383D01*
X580602Y519366D01*
X580697Y519293D01*
X580786Y519214D01*
X580822Y519196D01*
X580854Y519171D01*
X580963Y519124D01*
X581069Y519070D01*
X581108Y519061D01*
X581146Y519045D01*
X581263Y519026D01*
X581379Y519000D01*
X581420Y519001D01*
X581460Y518995D01*
X581578Y519006D01*
X581697Y519010D01*
X581736Y519021D01*
X581776Y519025D01*
X581889Y519065D01*
X582003Y519098D01*
X582037Y519119D01*
X582076Y519132D01*
X582174Y519199D01*
X582277Y519260D01*
X582322Y519300D01*
X582339Y519311D01*
X582352Y519326D01*
X582397Y519366D01*
X587414Y524383D01*
X600986Y524383D01*
X606002Y519366D01*
X606097Y519293D01*
X606186Y519214D01*
X606222Y519196D01*
X606254Y519171D01*
X606363Y519124D01*
X606469Y519070D01*
X606508Y519061D01*
X606546Y519045D01*
X606663Y519026D01*
X606779Y519000D01*
X606820Y519001D01*
X606860Y518995D01*
X606978Y519006D01*
X607097Y519010D01*
X607136Y519021D01*
X607176Y519025D01*
X607289Y519065D01*
X607403Y519098D01*
X607437Y519119D01*
X607476Y519132D01*
X607574Y519199D01*
X607677Y519260D01*
X607722Y519300D01*
X607739Y519311D01*
X607752Y519326D01*
X607797Y519366D01*
X612814Y524383D01*
X626386Y524383D01*
X631402Y519366D01*
X631497Y519293D01*
X631586Y519214D01*
X631622Y519196D01*
X631654Y519171D01*
X631763Y519124D01*
X631869Y519070D01*
X631908Y519061D01*
X631946Y519045D01*
X632063Y519026D01*
X632179Y519000D01*
X632220Y519001D01*
X632260Y518995D01*
X632378Y519006D01*
X632497Y519010D01*
X632536Y519021D01*
X632576Y519025D01*
X632689Y519065D01*
X632803Y519098D01*
X632837Y519119D01*
X632876Y519132D01*
X632974Y519199D01*
X633077Y519260D01*
X633122Y519300D01*
X633139Y519311D01*
X633152Y519326D01*
X633197Y519366D01*
X638214Y524383D01*
X651786Y524383D01*
X661383Y514786D01*
X661383Y501214D01*
X651786Y491617D01*
X638214Y491617D01*
X633197Y496634D01*
X633103Y496707D01*
X633014Y496786D01*
X632978Y496804D01*
X632946Y496829D01*
X632837Y496876D01*
X632731Y496930D01*
X632692Y496939D01*
X632654Y496955D01*
X632537Y496974D01*
X632421Y497000D01*
X632380Y496999D01*
X632340Y497005D01*
X632222Y496994D01*
X632103Y496990D01*
X632064Y496979D01*
X632024Y496975D01*
X631911Y496935D01*
X631797Y496902D01*
X631762Y496881D01*
X631724Y496868D01*
X631626Y496801D01*
X631523Y496740D01*
X631478Y496700D01*
X631461Y496689D01*
X631448Y496674D01*
X631402Y496634D01*
X626386Y491617D01*
X612814Y491617D01*
X607797Y496634D01*
X607703Y496707D01*
X607614Y496786D01*
X607578Y496804D01*
X607546Y496829D01*
X607437Y496876D01*
X607331Y496930D01*
X607292Y496939D01*
X607254Y496955D01*
X607137Y496974D01*
X607021Y497000D01*
X606980Y496999D01*
X606940Y497005D01*
X606822Y496994D01*
X606703Y496990D01*
X606664Y496979D01*
X606624Y496975D01*
X606511Y496935D01*
X606397Y496902D01*
X606362Y496881D01*
X606324Y496868D01*
X606226Y496801D01*
X606123Y496740D01*
X606078Y496700D01*
X606061Y496689D01*
X606048Y496674D01*
X606002Y496634D01*
X600986Y491617D01*
X587414Y491617D01*
X582397Y496634D01*
X582303Y496707D01*
X582214Y496786D01*
X582178Y496804D01*
X582146Y496829D01*
X582037Y496876D01*
X581931Y496930D01*
X581892Y496939D01*
X581854Y496955D01*
X581737Y496974D01*
X581621Y497000D01*
X581580Y496999D01*
X581540Y497005D01*
X581422Y496994D01*
X581303Y496990D01*
X581264Y496979D01*
X581224Y496975D01*
X581111Y496935D01*
X580997Y496902D01*
X580962Y496881D01*
X580924Y496868D01*
X580826Y496801D01*
X580723Y496740D01*
X580678Y496700D01*
X580661Y496689D01*
X580648Y496674D01*
X580602Y496634D01*
X575586Y491617D01*
X562014Y491617D01*
X556997Y496634D01*
X556903Y496707D01*
X556814Y496786D01*
X556778Y496804D01*
X556746Y496829D01*
X556637Y496876D01*
X556531Y496930D01*
X556492Y496939D01*
X556454Y496955D01*
X556337Y496974D01*
X556221Y497000D01*
X556180Y496999D01*
X556140Y497005D01*
X556022Y496994D01*
X555903Y496990D01*
X555864Y496979D01*
X555824Y496975D01*
X555711Y496935D01*
X555597Y496902D01*
X555562Y496881D01*
X555524Y496868D01*
X555426Y496801D01*
X555323Y496740D01*
X555278Y496700D01*
X555261Y496689D01*
X555248Y496674D01*
X555202Y496634D01*
X550186Y491617D01*
X536614Y491617D01*
X531598Y496634D01*
X531503Y496707D01*
X531414Y496786D01*
X531378Y496804D01*
X531346Y496829D01*
X531237Y496876D01*
X531131Y496930D01*
X531092Y496939D01*
X531054Y496955D01*
X530937Y496974D01*
X530821Y497000D01*
X530780Y496999D01*
X530740Y497005D01*
X530622Y496994D01*
X530503Y496990D01*
X530464Y496979D01*
X530424Y496975D01*
X530311Y496935D01*
X530197Y496902D01*
X530163Y496881D01*
X530124Y496868D01*
X530026Y496801D01*
X529923Y496740D01*
X529878Y496700D01*
X529861Y496689D01*
X529848Y496674D01*
X529803Y496634D01*
X524786Y491617D01*
X511214Y491617D01*
X506198Y496634D01*
X506103Y496707D01*
X506014Y496786D01*
X505978Y496804D01*
X505946Y496829D01*
X505837Y496876D01*
X505731Y496930D01*
X505692Y496939D01*
X505654Y496955D01*
X505537Y496974D01*
X505421Y497000D01*
X505380Y496999D01*
X505340Y497005D01*
X505222Y496994D01*
X505103Y496990D01*
X505064Y496979D01*
X505024Y496975D01*
X504911Y496935D01*
X504797Y496902D01*
X504763Y496881D01*
X504724Y496868D01*
X504626Y496801D01*
X504523Y496740D01*
X504478Y496700D01*
X504461Y496689D01*
X504448Y496674D01*
X504403Y496634D01*
X499386Y491617D01*
X485814Y491617D01*
X480798Y496634D01*
X480703Y496707D01*
X480614Y496786D01*
X480578Y496804D01*
X480546Y496829D01*
X480437Y496876D01*
X480331Y496930D01*
X480292Y496939D01*
X480254Y496955D01*
X480137Y496974D01*
X480021Y497000D01*
X479980Y496999D01*
X479940Y497005D01*
X479822Y496994D01*
X479703Y496990D01*
X479664Y496979D01*
X479624Y496975D01*
X479511Y496935D01*
X479397Y496902D01*
X479363Y496881D01*
X479324Y496868D01*
X479226Y496801D01*
X479123Y496740D01*
X479078Y496700D01*
X479061Y496689D01*
X479048Y496674D01*
X479003Y496634D01*
X473986Y491617D01*
X460414Y491617D01*
G37*
%LPD*%
G36*
X455074Y11448D02*
X455074Y11448D01*
X455213Y11461D01*
X455232Y11468D01*
X455252Y11471D01*
X455381Y11522D01*
X455512Y11569D01*
X455529Y11580D01*
X455548Y11588D01*
X455660Y11669D01*
X455775Y11747D01*
X455789Y11763D01*
X455805Y11774D01*
X455894Y11882D01*
X455986Y11986D01*
X455995Y12004D01*
X456008Y12019D01*
X456067Y12145D01*
X456130Y12269D01*
X456135Y12289D01*
X456143Y12307D01*
X456169Y12443D01*
X456200Y12579D01*
X456199Y12600D01*
X456203Y12620D01*
X456194Y12758D01*
X456190Y12897D01*
X456185Y12917D01*
X456183Y12937D01*
X456140Y13069D01*
X456102Y13203D01*
X456092Y13220D01*
X456085Y13239D01*
X456011Y13357D01*
X455940Y13477D01*
X455922Y13498D01*
X455915Y13508D01*
X455900Y13522D01*
X455834Y13598D01*
X451537Y17895D01*
X451443Y17968D01*
X451353Y18046D01*
X451317Y18065D01*
X451285Y18090D01*
X451176Y18137D01*
X451070Y18191D01*
X451031Y18200D01*
X450994Y18216D01*
X450876Y18235D01*
X450760Y18261D01*
X450720Y18259D01*
X450679Y18266D01*
X450561Y18255D01*
X450442Y18251D01*
X450403Y18240D01*
X450363Y18236D01*
X450251Y18196D01*
X450136Y18163D01*
X450102Y18142D01*
X450064Y18128D01*
X449965Y18061D01*
X449863Y18001D01*
X449817Y17961D01*
X449800Y17950D01*
X449787Y17935D01*
X449742Y17895D01*
X446324Y14477D01*
X444299Y14477D01*
X444299Y24170D01*
X444284Y24288D01*
X444277Y24407D01*
X444264Y24445D01*
X444259Y24485D01*
X444216Y24596D01*
X444179Y24709D01*
X444157Y24743D01*
X444142Y24781D01*
X444073Y24877D01*
X444009Y24978D01*
X443979Y25006D01*
X443956Y25038D01*
X443864Y25114D01*
X443777Y25196D01*
X443742Y25215D01*
X443711Y25241D01*
X443603Y25292D01*
X443499Y25349D01*
X443459Y25359D01*
X443423Y25377D01*
X443316Y25397D01*
X443346Y25401D01*
X443456Y25445D01*
X443569Y25481D01*
X443604Y25503D01*
X443641Y25518D01*
X443737Y25588D01*
X443838Y25651D01*
X443866Y25681D01*
X443899Y25705D01*
X443975Y25796D01*
X444056Y25883D01*
X444076Y25918D01*
X444101Y25950D01*
X444152Y26057D01*
X444210Y26162D01*
X444220Y26201D01*
X444237Y26237D01*
X444259Y26354D01*
X444289Y26470D01*
X444293Y26530D01*
X444297Y26550D01*
X444295Y26570D01*
X444296Y26577D01*
X444297Y26581D01*
X444296Y26586D01*
X444299Y26630D01*
X444299Y36323D01*
X446324Y36323D01*
X449742Y32905D01*
X449836Y32832D01*
X449925Y32754D01*
X449961Y32735D01*
X449993Y32710D01*
X450102Y32663D01*
X450208Y32609D01*
X450248Y32600D01*
X450285Y32584D01*
X450403Y32565D01*
X450519Y32539D01*
X450559Y32541D01*
X450599Y32534D01*
X450718Y32545D01*
X450836Y32549D01*
X450875Y32560D01*
X450916Y32564D01*
X451028Y32604D01*
X451142Y32637D01*
X451177Y32658D01*
X451215Y32672D01*
X451313Y32738D01*
X451416Y32799D01*
X451461Y32839D01*
X451478Y32850D01*
X451491Y32865D01*
X451537Y32905D01*
X454764Y36132D01*
X454824Y36210D01*
X454892Y36283D01*
X454921Y36336D01*
X454958Y36383D01*
X454998Y36474D01*
X455046Y36561D01*
X455061Y36620D01*
X455085Y36675D01*
X455100Y36773D01*
X455125Y36869D01*
X455131Y36969D01*
X455135Y36989D01*
X455133Y37002D01*
X455135Y37030D01*
X455135Y73377D01*
X455123Y73475D01*
X455120Y73574D01*
X455103Y73632D01*
X455095Y73692D01*
X455059Y73784D01*
X455031Y73880D01*
X455001Y73932D01*
X454978Y73988D01*
X454920Y74068D01*
X454870Y74154D01*
X454804Y74229D01*
X454792Y74245D01*
X454782Y74253D01*
X454764Y74274D01*
X452574Y76464D01*
X452496Y76524D01*
X452424Y76592D01*
X452371Y76621D01*
X452323Y76658D01*
X452232Y76698D01*
X452145Y76746D01*
X452087Y76761D01*
X452031Y76785D01*
X451933Y76800D01*
X451838Y76825D01*
X451738Y76831D01*
X451717Y76835D01*
X451705Y76833D01*
X451677Y76835D01*
X447954Y76835D01*
X447918Y76831D01*
X447882Y76833D01*
X447761Y76811D01*
X447638Y76795D01*
X447605Y76782D01*
X447570Y76776D01*
X447457Y76724D01*
X447343Y76678D01*
X447313Y76657D01*
X447281Y76642D01*
X447150Y76548D01*
X445074Y74850D01*
X441837Y73873D01*
X438472Y74210D01*
X435492Y75808D01*
X435032Y76370D01*
X435030Y76372D01*
X435029Y76374D01*
X434912Y76484D01*
X434802Y76589D01*
X434799Y76590D01*
X434797Y76592D01*
X434660Y76667D01*
X434524Y76743D01*
X434521Y76744D01*
X434518Y76746D01*
X434370Y76784D01*
X434216Y76824D01*
X434213Y76824D01*
X434211Y76825D01*
X434050Y76835D01*
X399915Y76835D01*
X399777Y76818D01*
X399638Y76805D01*
X399619Y76798D01*
X399599Y76795D01*
X399470Y76744D01*
X399339Y76697D01*
X399322Y76686D01*
X399303Y76678D01*
X399191Y76597D01*
X399076Y76519D01*
X399063Y76503D01*
X399046Y76492D01*
X398957Y76384D01*
X398865Y76280D01*
X398856Y76262D01*
X398843Y76247D01*
X398784Y76121D01*
X398721Y75997D01*
X398716Y75977D01*
X398708Y75959D01*
X398682Y75823D01*
X398651Y75687D01*
X398652Y75666D01*
X398648Y75647D01*
X398657Y75508D01*
X398661Y75369D01*
X398666Y75349D01*
X398668Y75329D01*
X398711Y75197D01*
X398749Y75063D01*
X398760Y75046D01*
X398766Y75027D01*
X398840Y74909D01*
X398911Y74789D01*
X398929Y74768D01*
X398936Y74758D01*
X398951Y74744D01*
X399017Y74669D01*
X401228Y72458D01*
X403065Y68023D01*
X403065Y37030D01*
X403077Y36931D01*
X403080Y36832D01*
X403097Y36774D01*
X403105Y36714D01*
X403141Y36622D01*
X403169Y36527D01*
X403199Y36475D01*
X403222Y36418D01*
X403280Y36338D01*
X403330Y36253D01*
X403396Y36178D01*
X403408Y36161D01*
X403418Y36153D01*
X403436Y36132D01*
X406663Y32905D01*
X406757Y32832D01*
X406847Y32754D01*
X406883Y32735D01*
X406915Y32710D01*
X407024Y32663D01*
X407130Y32609D01*
X407169Y32600D01*
X407206Y32584D01*
X407324Y32565D01*
X407440Y32539D01*
X407480Y32541D01*
X407521Y32534D01*
X407639Y32545D01*
X407758Y32549D01*
X407797Y32560D01*
X407837Y32564D01*
X407949Y32604D01*
X408064Y32637D01*
X408098Y32658D01*
X408136Y32672D01*
X408235Y32739D01*
X408337Y32799D01*
X408383Y32839D01*
X408400Y32850D01*
X408413Y32866D01*
X408458Y32905D01*
X411876Y36323D01*
X413901Y36323D01*
X413901Y26630D01*
X413916Y26512D01*
X413923Y26393D01*
X413935Y26355D01*
X413941Y26315D01*
X413984Y26204D01*
X414021Y26091D01*
X414043Y26057D01*
X414058Y26019D01*
X414127Y25923D01*
X414191Y25822D01*
X414221Y25794D01*
X414244Y25762D01*
X414336Y25686D01*
X414423Y25604D01*
X414458Y25585D01*
X414489Y25559D01*
X414597Y25508D01*
X414701Y25451D01*
X414741Y25441D01*
X414777Y25423D01*
X414884Y25403D01*
X414854Y25399D01*
X414744Y25355D01*
X414631Y25319D01*
X414596Y25297D01*
X414559Y25282D01*
X414462Y25212D01*
X414362Y25149D01*
X414334Y25119D01*
X414301Y25095D01*
X414225Y25004D01*
X414144Y24917D01*
X414124Y24882D01*
X414099Y24850D01*
X414048Y24743D01*
X413990Y24638D01*
X413980Y24599D01*
X413963Y24563D01*
X413941Y24446D01*
X413911Y24330D01*
X413907Y24270D01*
X413903Y24250D01*
X413905Y24230D01*
X413901Y24170D01*
X413901Y14477D01*
X411876Y14477D01*
X408458Y17895D01*
X408364Y17968D01*
X408275Y18046D01*
X408239Y18065D01*
X408207Y18090D01*
X408098Y18137D01*
X407992Y18191D01*
X407952Y18200D01*
X407915Y18216D01*
X407797Y18235D01*
X407681Y18261D01*
X407641Y18259D01*
X407601Y18266D01*
X407482Y18255D01*
X407364Y18251D01*
X407325Y18240D01*
X407284Y18236D01*
X407172Y18196D01*
X407058Y18163D01*
X407023Y18142D01*
X406985Y18128D01*
X406887Y18062D01*
X406784Y18001D01*
X406739Y17961D01*
X406722Y17950D01*
X406709Y17935D01*
X406663Y17895D01*
X402366Y13598D01*
X402281Y13488D01*
X402192Y13381D01*
X402184Y13362D01*
X402171Y13346D01*
X402116Y13218D01*
X402057Y13093D01*
X402053Y13073D01*
X402045Y13054D01*
X402023Y12916D01*
X401997Y12781D01*
X401998Y12760D01*
X401995Y12740D01*
X402008Y12601D01*
X402017Y12463D01*
X402023Y12444D01*
X402025Y12424D01*
X402072Y12292D01*
X402115Y12161D01*
X402126Y12143D01*
X402132Y12124D01*
X402211Y12009D01*
X402285Y11892D01*
X402300Y11878D01*
X402311Y11861D01*
X402415Y11769D01*
X402517Y11674D01*
X402534Y11664D01*
X402549Y11651D01*
X402673Y11588D01*
X402795Y11520D01*
X402815Y11515D01*
X402833Y11506D01*
X402969Y11476D01*
X403103Y11441D01*
X403131Y11439D01*
X403143Y11437D01*
X403163Y11437D01*
X403264Y11431D01*
X454936Y11431D01*
X455074Y11448D01*
G37*
G36*
X116246Y372282D02*
X116246Y372282D01*
X116385Y372295D01*
X116404Y372302D01*
X116424Y372305D01*
X116553Y372356D01*
X116685Y372403D01*
X116701Y372414D01*
X116720Y372422D01*
X116832Y372503D01*
X116948Y372581D01*
X116961Y372597D01*
X116977Y372608D01*
X117066Y372716D01*
X117158Y372820D01*
X117167Y372838D01*
X117180Y372853D01*
X117239Y372979D01*
X117303Y373103D01*
X117307Y373123D01*
X117316Y373141D01*
X117342Y373277D01*
X117372Y373413D01*
X117372Y373434D01*
X117376Y373453D01*
X117367Y373592D01*
X117363Y373731D01*
X117357Y373751D01*
X117356Y373771D01*
X117313Y373903D01*
X117274Y374037D01*
X117264Y374054D01*
X117258Y374073D01*
X117183Y374191D01*
X117113Y374311D01*
X117094Y374332D01*
X117088Y374342D01*
X117073Y374356D01*
X117006Y374431D01*
X68760Y422678D01*
X68736Y422696D01*
X68717Y422719D01*
X68611Y422794D01*
X68508Y422873D01*
X68481Y422885D01*
X68457Y422902D01*
X68336Y422948D01*
X68216Y423000D01*
X68187Y423004D01*
X68160Y423015D01*
X68031Y423029D01*
X67902Y423050D01*
X67873Y423047D01*
X67844Y423050D01*
X67715Y423032D01*
X67586Y423020D01*
X67558Y423010D01*
X67529Y423006D01*
X67376Y422954D01*
X64679Y421836D01*
X64550Y421763D01*
X64419Y421691D01*
X64412Y421684D01*
X64403Y421679D01*
X64296Y421575D01*
X64187Y421473D01*
X64182Y421465D01*
X64174Y421458D01*
X64097Y421331D01*
X64017Y421205D01*
X64014Y421195D01*
X64008Y421186D01*
X63964Y421044D01*
X63918Y420903D01*
X63918Y420892D01*
X63915Y420882D01*
X63908Y420734D01*
X63898Y420585D01*
X63900Y420575D01*
X63899Y420565D01*
X63930Y420419D01*
X63957Y420273D01*
X63962Y420263D01*
X63964Y420253D01*
X64030Y420119D01*
X64092Y419985D01*
X64099Y419977D01*
X64103Y419968D01*
X64200Y419854D01*
X64295Y419740D01*
X64306Y419731D01*
X64310Y419726D01*
X64322Y419717D01*
X64419Y419637D01*
X65639Y418750D01*
X66770Y417619D01*
X67710Y416325D01*
X68436Y414900D01*
X68879Y413539D01*
X52670Y413539D01*
X52552Y413524D01*
X52433Y413517D01*
X52395Y413504D01*
X52355Y413499D01*
X52244Y413456D01*
X52131Y413419D01*
X52097Y413397D01*
X52059Y413382D01*
X51963Y413312D01*
X51862Y413249D01*
X51834Y413219D01*
X51802Y413195D01*
X51726Y413104D01*
X51644Y413017D01*
X51625Y412982D01*
X51599Y412951D01*
X51548Y412843D01*
X51491Y412739D01*
X51480Y412699D01*
X51463Y412663D01*
X51441Y412546D01*
X51411Y412431D01*
X51407Y412370D01*
X51403Y412350D01*
X51405Y412330D01*
X51401Y412270D01*
X51401Y409730D01*
X51416Y409612D01*
X51423Y409493D01*
X51436Y409455D01*
X51441Y409414D01*
X51485Y409304D01*
X51521Y409191D01*
X51543Y409156D01*
X51558Y409119D01*
X51628Y409023D01*
X51691Y408922D01*
X51721Y408894D01*
X51745Y408861D01*
X51836Y408786D01*
X51923Y408704D01*
X51958Y408684D01*
X51990Y408659D01*
X52097Y408608D01*
X52202Y408550D01*
X52241Y408540D01*
X52277Y408523D01*
X52394Y408501D01*
X52509Y408471D01*
X52570Y408467D01*
X52590Y408463D01*
X52610Y408465D01*
X52670Y408461D01*
X68879Y408461D01*
X68436Y407100D01*
X67710Y405675D01*
X66770Y404381D01*
X65639Y403250D01*
X64419Y402363D01*
X64311Y402262D01*
X64200Y402161D01*
X64194Y402152D01*
X64187Y402145D01*
X64107Y402020D01*
X64025Y401895D01*
X64022Y401886D01*
X64017Y401877D01*
X63970Y401735D01*
X63922Y401595D01*
X63921Y401584D01*
X63918Y401575D01*
X63909Y401427D01*
X63897Y401278D01*
X63899Y401267D01*
X63898Y401257D01*
X63926Y401111D01*
X63951Y400964D01*
X63956Y400955D01*
X63958Y400945D01*
X64021Y400810D01*
X64082Y400674D01*
X64088Y400666D01*
X64093Y400657D01*
X64188Y400542D01*
X64281Y400426D01*
X64289Y400420D01*
X64295Y400412D01*
X64416Y400324D01*
X64535Y400235D01*
X64547Y400228D01*
X64552Y400225D01*
X64566Y400219D01*
X64679Y400164D01*
X67868Y398843D01*
X72263Y394448D01*
X74641Y388707D01*
X74641Y382493D01*
X72263Y376752D01*
X69943Y374431D01*
X69857Y374322D01*
X69769Y374215D01*
X69760Y374196D01*
X69748Y374180D01*
X69692Y374052D01*
X69633Y373927D01*
X69629Y373907D01*
X69621Y373888D01*
X69599Y373750D01*
X69573Y373614D01*
X69575Y373594D01*
X69571Y373574D01*
X69584Y373435D01*
X69593Y373297D01*
X69599Y373278D01*
X69601Y373258D01*
X69648Y373126D01*
X69691Y372995D01*
X69702Y372977D01*
X69709Y372958D01*
X69787Y372843D01*
X69861Y372726D01*
X69876Y372712D01*
X69887Y372695D01*
X69992Y372603D01*
X70093Y372508D01*
X70111Y372498D01*
X70126Y372485D01*
X70250Y372421D01*
X70371Y372354D01*
X70391Y372349D01*
X70409Y372340D01*
X70545Y372310D01*
X70679Y372275D01*
X70707Y372273D01*
X70719Y372270D01*
X70740Y372271D01*
X70840Y372265D01*
X116109Y372265D01*
X116246Y372282D01*
G37*
%LPC*%
G36*
X655820Y180899D02*
X655820Y180899D01*
X649020Y183716D01*
X643816Y188920D01*
X640999Y195720D01*
X640999Y203080D01*
X643816Y209880D01*
X649020Y215084D01*
X655820Y217901D01*
X663180Y217901D01*
X669980Y215084D01*
X675184Y209880D01*
X678001Y203080D01*
X678001Y195720D01*
X675184Y188920D01*
X669980Y183716D01*
X663180Y180899D01*
X655820Y180899D01*
G37*
%LPD*%
%LPC*%
G36*
X655820Y106899D02*
X655820Y106899D01*
X649020Y109716D01*
X643816Y114920D01*
X640999Y121720D01*
X640999Y129080D01*
X643816Y135880D01*
X649020Y141084D01*
X655820Y143901D01*
X663180Y143901D01*
X669980Y141084D01*
X675184Y135880D01*
X678001Y129080D01*
X678001Y121720D01*
X675184Y114920D01*
X669980Y109716D01*
X663180Y106899D01*
X655820Y106899D01*
G37*
%LPD*%
%LPC*%
G36*
X566025Y392956D02*
X566025Y392956D01*
X566025Y400578D01*
X580965Y400578D01*
X580523Y399217D01*
X579796Y397792D01*
X578856Y396498D01*
X577725Y395367D01*
X576432Y394427D01*
X575007Y393701D01*
X573486Y393206D01*
X571906Y392956D01*
X566025Y392956D01*
G37*
%LPD*%
%LPC*%
G36*
X393599Y392956D02*
X393599Y392956D01*
X392019Y393206D01*
X390498Y393701D01*
X389073Y394427D01*
X387779Y395367D01*
X386648Y396498D01*
X385708Y397792D01*
X384982Y399217D01*
X384540Y400578D01*
X399479Y400578D01*
X399479Y392956D01*
X393599Y392956D01*
G37*
%LPD*%
%LPC*%
G36*
X555067Y392956D02*
X555067Y392956D01*
X553487Y393206D01*
X551966Y393701D01*
X550541Y394427D01*
X549247Y395367D01*
X548116Y396498D01*
X547176Y397792D01*
X546450Y399217D01*
X546008Y400578D01*
X560947Y400578D01*
X560947Y392956D01*
X555067Y392956D01*
G37*
%LPD*%
%LPC*%
G36*
X494799Y176599D02*
X494799Y176599D01*
X494799Y188910D01*
X495291Y188812D01*
X496846Y188169D01*
X498244Y187234D01*
X499434Y186044D01*
X500369Y184646D01*
X501012Y183091D01*
X501341Y181441D01*
X501341Y176599D01*
X494799Y176599D01*
G37*
%LPD*%
%LPC*%
G36*
X494799Y172601D02*
X494799Y172601D01*
X501341Y172601D01*
X501341Y167759D01*
X501012Y166109D01*
X500369Y164554D01*
X499434Y163156D01*
X498244Y161966D01*
X496846Y161031D01*
X495291Y160388D01*
X494799Y160290D01*
X494799Y172601D01*
G37*
%LPD*%
%LPC*%
G36*
X484259Y176599D02*
X484259Y176599D01*
X484259Y181441D01*
X484588Y183091D01*
X485231Y184646D01*
X486166Y186044D01*
X487356Y187234D01*
X488754Y188169D01*
X490309Y188812D01*
X490801Y188910D01*
X490801Y176599D01*
X484259Y176599D01*
G37*
%LPD*%
%LPC*%
G36*
X490309Y160388D02*
X490309Y160388D01*
X488754Y161031D01*
X487356Y161966D01*
X486166Y163156D01*
X485231Y164554D01*
X484588Y166109D01*
X484259Y167759D01*
X484259Y172601D01*
X490801Y172601D01*
X490801Y160290D01*
X490309Y160388D01*
G37*
%LPD*%
%LPC*%
G36*
X586959Y176149D02*
X586959Y176149D01*
X586959Y178234D01*
X587132Y178881D01*
X587467Y179460D01*
X587940Y179933D01*
X588519Y180268D01*
X589166Y180441D01*
X601251Y180441D01*
X601251Y176149D01*
X586959Y176149D01*
G37*
%LPD*%
%LPC*%
G36*
X589166Y168359D02*
X589166Y168359D01*
X588519Y168532D01*
X587940Y168867D01*
X587467Y169340D01*
X587132Y169919D01*
X586959Y170566D01*
X586959Y172651D01*
X601251Y172651D01*
X601251Y168359D01*
X589166Y168359D01*
G37*
%LPD*%
%LPC*%
G36*
X418899Y27899D02*
X418899Y27899D01*
X418899Y36323D01*
X420924Y36323D01*
X427323Y29924D01*
X427323Y27899D01*
X418899Y27899D01*
G37*
%LPD*%
%LPC*%
G36*
X430877Y27899D02*
X430877Y27899D01*
X430877Y29924D01*
X437276Y36323D01*
X439301Y36323D01*
X439301Y27899D01*
X430877Y27899D01*
G37*
%LPD*%
%LPC*%
G36*
X418899Y14477D02*
X418899Y14477D01*
X418899Y22901D01*
X427323Y22901D01*
X427323Y20876D01*
X420924Y14477D01*
X418899Y14477D01*
G37*
%LPD*%
%LPC*%
G36*
X437276Y14477D02*
X437276Y14477D01*
X430877Y20876D01*
X430877Y22901D01*
X439301Y22901D01*
X439301Y14477D01*
X437276Y14477D01*
G37*
%LPD*%
%LPC*%
G36*
X321512Y59717D02*
X321512Y59717D01*
X321512Y66218D01*
X329014Y66218D01*
X329014Y61923D01*
X328841Y61277D01*
X328506Y60697D01*
X328033Y60224D01*
X327454Y59890D01*
X326808Y59717D01*
X321512Y59717D01*
G37*
%LPD*%
%LPC*%
G36*
X311139Y59717D02*
X311139Y59717D01*
X310492Y59890D01*
X309913Y60224D01*
X309440Y60697D01*
X309106Y61277D01*
X308932Y61923D01*
X308932Y66218D01*
X316434Y66218D01*
X316434Y59717D01*
X311139Y59717D01*
G37*
%LPD*%
D10*
X510300Y86980D02*
X510300Y102220D01*
X535700Y102220D02*
X535700Y86980D01*
D11*
X518200Y321000D02*
X518200Y333000D01*
X492800Y333000D02*
X492800Y321000D01*
X467400Y321000D02*
X467400Y333000D01*
X442000Y333000D02*
X442000Y321000D01*
X416600Y321000D02*
X416600Y333000D01*
X391200Y333000D02*
X391200Y321000D01*
X365800Y321000D02*
X365800Y333000D01*
X340400Y333000D02*
X340400Y321000D01*
X315000Y321000D02*
X315000Y333000D01*
X289600Y333000D02*
X289600Y321000D01*
X264200Y321000D02*
X264200Y333000D01*
X238800Y333000D02*
X238800Y321000D01*
X518200Y180600D02*
X518200Y168600D01*
X492800Y168600D02*
X492800Y180600D01*
X467400Y180600D02*
X467400Y168600D01*
X442000Y168600D02*
X442000Y180600D01*
X416600Y180600D02*
X416600Y168600D01*
X391200Y168600D02*
X391200Y180600D01*
X365800Y180600D02*
X365800Y168600D01*
X340400Y168600D02*
X340400Y180600D01*
X315000Y180600D02*
X315000Y168600D01*
X289600Y168600D02*
X289600Y180600D01*
X264200Y180600D02*
X264200Y168600D01*
X238800Y168600D02*
X238800Y180600D01*
X537600Y314300D02*
X549600Y314300D01*
X549600Y288900D02*
X537600Y288900D01*
X537600Y263500D02*
X549600Y263500D01*
X549600Y238100D02*
X537600Y238100D01*
X537600Y212700D02*
X549600Y212700D01*
X549600Y187300D02*
X537600Y187300D01*
X302300Y206700D02*
X302300Y218700D01*
X327700Y218700D02*
X327700Y206700D01*
X403900Y206700D02*
X403900Y218700D01*
X429300Y218700D02*
X429300Y206700D01*
D12*
X543400Y508000D03*
X518000Y25400D03*
X568800Y508000D03*
X594200Y508000D03*
X619600Y508000D03*
X645000Y508000D03*
X518000Y508000D03*
X492600Y508000D03*
X467200Y508000D03*
X426560Y508000D03*
X401160Y508000D03*
X375760Y508000D03*
X350360Y508000D03*
X324960Y508000D03*
X299560Y508000D03*
X274160Y508000D03*
X248760Y508000D03*
X543400Y25400D03*
X568800Y25400D03*
X594200Y25400D03*
X619600Y25400D03*
X645000Y25400D03*
X467200Y25400D03*
X441800Y25400D03*
X416400Y25400D03*
X391000Y25400D03*
X365600Y25400D03*
X340200Y25400D03*
X223360Y508000D03*
X197960Y508000D03*
X314800Y25400D03*
X289400Y25400D03*
D10*
X59020Y334800D02*
X43780Y334800D01*
X43780Y360200D02*
X59020Y360200D01*
X59020Y385600D02*
X43780Y385600D01*
X43780Y411000D02*
X59020Y411000D01*
X59020Y436400D02*
X43780Y436400D01*
D13*
X603000Y174400D03*
X603000Y150400D03*
D14*
X659500Y199400D03*
X659500Y125400D03*
D10*
X409639Y453917D02*
X394399Y453917D01*
X394399Y428517D02*
X409639Y428517D01*
X409639Y403117D02*
X394399Y403117D01*
X475132Y453917D02*
X490372Y453917D01*
X490372Y428517D02*
X475132Y428517D01*
X475132Y403117D02*
X490372Y403117D01*
X555866Y453917D02*
X571106Y453917D01*
X571106Y428517D02*
X555866Y428517D01*
X555866Y403117D02*
X571106Y403117D01*
D15*
X361672Y125476D03*
X339672Y115976D03*
X339672Y134976D03*
D16*
X318973Y87757D03*
X318973Y68757D03*
D17*
X268859Y132080D03*
X287859Y132080D03*
X287198Y100051D03*
X268198Y100051D03*
D18*
X21539Y21819D03*
D19*
X441000Y26200D02*
X441800Y25400D01*
X441000Y50000D02*
X439905Y50000D01*
X416400Y26495D02*
X416400Y25400D01*
X416400Y26495D02*
X439905Y50000D01*
D20*
X574900Y174400D02*
X603000Y174400D01*
X537000Y136500D02*
X519000Y136500D01*
X492800Y162700D01*
X537000Y136500D02*
X574900Y174400D01*
X603000Y174400D02*
X610100Y174400D01*
D18*
X98069Y507517D03*
X628091Y75997D03*
X669773Y307746D03*
X677596Y508203D03*
D21*
X368300Y28100D02*
X365600Y25400D01*
X367724Y88900D02*
X441250Y88900D01*
X457200Y88900D01*
X467200Y78900D01*
X467200Y25400D01*
X368300Y88324D02*
X367724Y88900D01*
X368300Y88324D02*
X368300Y28100D01*
X391000Y65624D02*
X368300Y88324D01*
X391000Y65624D02*
X391000Y25400D01*
D22*
X441000Y82500D02*
X441250Y85000D01*
X441250Y88900D01*
D23*
X364500Y90000D02*
X364500Y121500D01*
X361672Y125476D01*
X364500Y90000D02*
X319500Y90000D01*
X318973Y87757D01*
X364500Y90000D02*
X368300Y88324D01*
D20*
X442000Y162900D02*
X510300Y94600D01*
X442000Y162900D02*
X442000Y174600D01*
D23*
X337500Y112500D02*
X297000Y112500D01*
X288000Y103500D01*
X337500Y112500D02*
X339672Y115976D01*
X288000Y103500D02*
X287198Y100051D01*
X342000Y112500D02*
X351000Y103500D01*
X342000Y112500D02*
X339672Y115976D01*
D24*
X351000Y103500D03*
D21*
X238800Y327000D02*
X205600Y360200D01*
X51400Y360200D01*
X346600Y270000D02*
X403900Y212700D01*
X346600Y270000D02*
X234000Y270000D01*
X189000Y315000D01*
X189000Y318000D01*
D18*
X189000Y318000D03*
X189000Y318000D03*
D21*
X351000Y291000D02*
X429300Y212700D01*
X351000Y291000D02*
X238500Y291000D01*
X210000Y319500D01*
X208500Y319500D01*
D18*
X210000Y319500D03*
X210000Y319500D03*
X102000Y445500D03*
D21*
X102000Y450000D01*
X150849Y481584D02*
X150997Y481436D01*
X173003Y481436D01*
X188564Y496997D01*
X188564Y498604D01*
X197960Y508000D01*
X150849Y481584D02*
X133584Y481584D01*
X102000Y450000D01*
X289600Y451600D02*
X289600Y327000D01*
X324960Y486960D02*
X324960Y508000D01*
X324960Y486960D02*
X289600Y451600D01*
X315000Y453000D02*
X315000Y327000D01*
X315000Y453000D02*
X351000Y489000D01*
X351000Y507360D02*
X350360Y508000D01*
X351000Y507360D02*
X351000Y489000D01*
X216200Y375000D02*
X264200Y327000D01*
X216200Y375000D02*
X133500Y375000D01*
X72100Y436400D01*
X51400Y436400D01*
D20*
X582400Y150400D02*
X603000Y150400D01*
X535700Y103700D02*
X535700Y94600D01*
X535700Y103700D02*
X582400Y150400D01*
X603000Y150400D02*
X609400Y150400D01*
D23*
X454500Y211500D02*
X418500Y175500D01*
X454500Y211500D02*
X454500Y378000D01*
X405000Y427500D01*
X418500Y175500D02*
X416600Y174600D01*
X405000Y427500D02*
X402019Y428517D01*
X391500Y171000D02*
X490500Y72000D01*
X553500Y72000D01*
X625500Y144000D01*
X625500Y288000D01*
X486000Y427500D01*
X391200Y174600D02*
X391500Y171000D01*
X482752Y428517D02*
X486000Y427500D01*
X243000Y180000D02*
X243000Y175500D01*
X243000Y180000D02*
X256500Y193500D01*
X337500Y193500D01*
X369000Y225000D01*
X468000Y247500D02*
X477000Y247500D01*
X531000Y301500D01*
X558000Y301500D01*
X562500Y306000D01*
X562500Y319500D01*
X495000Y387000D01*
X468000Y387000D01*
X427500Y427500D01*
X427500Y432000D01*
X405000Y454500D01*
X243000Y175500D02*
X238800Y174600D01*
X402019Y453917D02*
X405000Y454500D01*
D24*
X369000Y225000D03*
X468000Y247500D03*
D21*
X482752Y453917D02*
X405000Y453917D01*
X405000Y454500D01*
X482752Y453917D02*
X563486Y453917D01*
D23*
X337500Y135000D02*
X288000Y135000D01*
X337500Y135000D02*
X339672Y134976D01*
X288000Y135000D02*
X287859Y132080D01*
X270000Y108000D02*
X270000Y103500D01*
X270000Y108000D02*
X283500Y121500D01*
X283500Y130500D01*
X270000Y103500D02*
X268198Y100051D01*
X283500Y130500D02*
X287859Y132080D01*
X270000Y135000D02*
X270000Y153000D01*
X288000Y171000D01*
X270000Y135000D02*
X268859Y132080D01*
X288000Y171000D02*
X289600Y174600D01*
M02*
